<svg width="71" height="71" viewBox="0 0 71 71" fill="none" xmlns="http://www.w3.org/2000/svg">
  <path
    d="M70.4589 16.2789V58.9556C70.4589 62.15 69.1899 65.2135 66.9312 67.4722C64.6725 69.7309 61.609 70.9999 58.4147 70.9999H15.5774C14.5111 71.006 13.4542 70.7997 12.4685 70.3931C11.4828 69.9864 10.588 69.3874 9.8363 68.6312L2.36888 61.1637C1.61263 60.412 1.01367 59.5172 0.606977 58.5315C0.200288 57.5458 -0.00602516 56.4889 0.000133941 55.4227V12.9065C0.000133941 9.7122 1.26913 6.64871 3.52786 4.38998C5.78659 2.13125 8.85003 0.862305 12.0444 0.862305H54.7211C56.8707 0.871829 58.9313 1.72199 60.4622 3.231L67.9296 10.6984C69.4772 12.1512 70.3865 14.1576 70.4589 16.2789Z"
    fill="#00C9FF" />
  <path
    d="M18.301 32.4474C21.1185 28.3647 27.8008 31.0232 24.9302 36.0018C31.6366 30.9052 39.1123 26.7712 47.3051 24.6844C47.6043 24.5838 48.0232 24.3294 48.2752 24.6554C49.9778 27.1099 51.6457 29.5972 53.0057 32.2626C53.2133 32.6418 53.5569 31.4789 53.7326 31.3174C54.3744 30.0877 56.0105 30.5714 57.1417 30.5511C57.6948 30.5521 58.912 31.3183 58.6552 31.8659C57.7875 33.8695 56.7904 33.4138 55.0424 32.9533C54.7393 32.7753 54.0791 32.9088 53.9497 33.2049C53.9198 33.4235 54.1505 33.469 54.2654 33.5861C55.2045 34.5458 56.0153 35.5819 56.3367 36.9257C56.4892 39.237 56.4593 41.5976 56.3001 43.9157C56.2364 44.5194 55.5153 44.7554 55.6408 45.4423C55.6514 46.4465 55.6466 47.4517 55.6476 48.4569C55.7074 49.0026 55.4854 49.5956 54.8696 49.6353C52.5559 49.6905 50.2307 49.6788 47.9171 49.6305C46.474 49.4283 47.8524 47.0435 46.7617 47.2998C40.0698 47.5804 33.3778 47.5524 26.685 47.3705C25.9427 47.3743 25.2033 47.3115 24.462 47.2911C24.2796 47.2863 24.1985 47.3163 24.2091 47.5253C24.2082 48.424 24.4292 49.7437 23.132 49.6527C22.38 49.6624 21.6281 49.6614 20.8762 49.6624C19.4873 49.6643 18.0983 49.6682 16.7093 49.6643C16.0819 49.6624 15.7489 49.3228 15.747 48.694C15.7431 47.564 15.7393 46.433 15.746 45.303C15.8059 44.68 15.0878 44.4555 15.0868 43.8673C14.9227 41.7456 14.9497 39.6211 14.9951 37.4965C15.0154 36.5629 15.4265 35.759 15.9362 35.0082C16.3416 34.4113 16.7923 33.8453 17.3734 33.4032C17.7305 33.1178 16.7692 32.7366 16.496 32.9127C15.4874 33.1478 14.0887 33.8366 13.3195 32.8208C13.0685 32.4174 12.4488 31.8388 12.8214 31.3793C13.7335 30.2909 15.2258 30.5047 16.5095 30.5221C17.5472 30.6217 17.8136 31.6395 18.301 32.4474ZM35.6799 43.9785C35.6799 43.9785 35.6799 43.9727 35.6799 43.9698C37.7889 43.9698 39.897 43.964 42.006 43.9737C43.4239 44.0211 44.1459 42.5573 44.5137 41.3935C44.9152 39.9645 42.8988 39.9655 41.952 39.9113C37.7455 39.9142 33.5381 39.9075 29.3316 39.9133C28.4195 39.9346 26.4359 40.0245 26.8548 41.3896C27.2998 42.7141 28.045 44.1275 29.6675 43.9931C31.6704 43.9428 33.6761 43.9785 35.6799 43.9785ZM54.3793 37.6968C54.3825 37.266 54.1862 37.0792 53.7905 37.1366C52.1245 37.5169 50.472 37.9551 48.8379 38.4592C47.5966 38.8065 46.9007 39.9481 46.2984 41.0026C46.1932 41.201 45.9055 41.4051 46.0793 41.6295C46.2414 41.8395 46.5493 41.7205 46.7887 41.6692C48.6535 41.2658 50.5106 40.8295 52.3812 40.4589C53.8223 40.2538 54.4101 39.0251 54.3802 37.6958L54.3793 37.6968ZM17.2682 37.6155C17.2904 38.702 17.5713 40.0023 18.7585 40.3032C20.911 40.8391 23.0731 41.379 25.2632 41.7195C26.2419 41.9836 24.7111 40.0458 24.5644 39.771C24.0798 39.1093 23.4688 38.6459 22.6619 38.4263C21.0635 37.9899 19.4795 37.5014 17.857 37.156C17.2499 37.0264 17.2518 37.0186 17.2672 37.6155H17.2682Z"
    fill="#003370" />
  <path
    d="M47.3099 24.3556C39.9819 24.8539 32.6867 26.0235 25.6522 28.2158C23.2961 28.9849 20.634 29.4987 18.8811 31.3871C20.0345 29.1233 21.5963 26.9146 23.0364 24.7668C23.6937 24.0112 26.0132 24.137 27.0334 23.9415C33.7572 23.364 40.6643 23.2372 47.3099 24.3546V24.3556Z"
    fill="#003370" />
</svg>