<svg width="86" height="71" viewBox="0 0 86 71" fill="none" xmlns="http://www.w3.org/2000/svg">
    <path fill-rule="evenodd" clip-rule="evenodd" d="M36.595 20.2975C36.595 30.4029 28.4029 38.595 18.2975 38.595C8.19206 38.595 0 30.4029 0 20.2975C0 10.1921 8.19206 2 18.2975 2C28.4029 2 36.595 10.1921 36.595 20.2975ZM16.5517 27.5902L27.2796 16.8643L24.7057 14.2899L16.5519 22.4421L13.4548 19.345L10.8806 21.9191L16.5517 27.5902Z" fill="#00C9FF"/>
    <path d="M66.8817 46.6472L50.5691 37.2203V14.7051" stroke="#00C9FF" stroke-width="7" stroke-miterlimit="10"/>
    <path d="M38.4966 6.9042C42.3798 5.25514 46.5563 4.40782 50.7752 4.41311C59.1043 4.41311 67.0922 7.72181 72.9818 13.6113C78.8713 19.5009 82.18 27.4888 82.18 35.8179C82.18 39.942 81.3677 44.0257 79.7894 47.8359C78.2112 51.6461 75.898 55.1082 72.9818 58.0244C70.0656 60.9406 66.6035 63.2538 62.7933 64.8321C58.9831 66.4103 54.8994 67.2226 50.7752 67.2226C44.0542 67.2226 37.5103 65.0674 32.1046 61.0735C26.6989 57.0797 22.7163 51.4578 20.7417 45.0333" stroke="#00C9FF" stroke-width="7" stroke-miterlimit="10"/>
</svg>

