<svg width="81" height="66" viewBox="0 0 81 66" fill="none" xmlns="http://www.w3.org/2000/svg">
    <path d="M47.5783 3.65701C46.2916 2.98352 44.9604 2.39935 43.5943 1.90858C41.2467 1.06229 38.8088 0.493875 36.33 0.214927C35.1125 0.0732493 33.8877 0.00292884 32.662 0.00431138C28.3873 -0.0361453 24.1471 0.774629 20.1861 2.38979C16.2252 4.00496 12.6221 6.39251 9.58514 9.41448C6.54814 12.4365 4.13751 16.033 2.49229 19.9962C0.847067 23.9595 0 28.2109 0 32.5049C0 36.7988 0.847067 41.0503 2.49229 45.0135C4.13751 48.9768 6.54814 52.5733 9.58514 55.5952C12.6221 58.6172 16.2252 61.0048 20.1861 62.6199C24.1471 64.2351 28.3873 65.0459 32.662 65.0054C33.8877 65.0068 35.1125 64.9365 36.33 64.7948C38.8088 64.5158 41.2467 63.9475 43.5943 63.1012C44.9604 62.6104 46.2916 62.0262 47.5783 61.3527C52.837 58.6085 57.2448 54.4668 60.3212 49.3791C63.3976 44.2915 65.0244 38.4531 65.0244 32.5005C65.0244 26.5479 63.3976 20.7096 60.3212 15.622C57.2448 10.5343 52.837 6.39259 47.5783 3.64834V3.65701ZM31.5563 40.5532L31.3982 41.4735L30.7232 45.3715H13.2735L14.0721 40.833L16.1603 38.4297L22.1923 31.4792L27.4142 25.4692H16.8812L17.6281 21.202L17.7171 20.6856H34.9514L34.1528 25.224L30.2607 29.6557L22.6805 38.2941L20.6986 40.5532H31.5563ZM48.8335 45.3715H34.9399L36.5397 36.1388L34.1758 36.837L35.2185 31.006L37.5825 30.3078L39.2512 20.6711H45.2286L43.873 28.3891L47.4204 27.3071L46.4121 33.1728L42.8303 34.2548L41.6814 40.784H49.589L48.8335 45.3715Z" fill="#00C9FF"/>
    <path d="M80.3234 32.5063C80.3214 37.1115 79.3455 41.6637 77.4603 45.8615C75.5751 50.0593 72.8237 53.807 69.3882 56.8563C65.9527 59.9057 61.9113 62.1872 57.532 63.5498C53.1526 64.9124 48.5351 65.325 43.9851 64.7602C45.0869 64.626 46.1808 64.4334 47.2624 64.1832C54.3982 62.5351 60.7667 58.5048 65.3273 52.7509C69.888 46.9971 72.3711 39.8597 72.3711 32.5049C72.3711 25.1501 69.888 18.0127 65.3273 12.2588C60.7667 6.50496 54.3982 2.47476 47.2624 0.826663C46.1808 0.576429 45.0869 0.383812 43.9851 0.249619C48.5363 -0.320419 53.1561 0.0884999 57.5379 1.44928C61.9196 2.81006 65.9631 5.09155 69.3999 8.14227C72.8366 11.193 75.5881 14.9432 77.4714 19.1438C79.3547 23.3444 80.3269 27.8994 80.3234 32.5063Z" fill="#00C9FF"/>
    <path d="M17.8262 20.6884C17.7602 20.8586 17.6941 21.0317 17.6338 21.2048L17.7228 20.6884H17.8262Z" fill="#00C9FF"/>
    <path d="M17.8262 20.6884C17.7602 20.8586 17.6941 21.0317 17.6338 21.2048L17.7228 20.6884H17.8262Z" fill="#00C9FF"/>
    <path d="M17.7228 20.6884L17.6338 21.2048C17.6941 21.0317 17.7602 20.8586 17.8262 20.6884H17.7228Z" fill="#00C9FF"/>
</svg>
