<svg width="61" height="58" viewBox="0 0 61 58" fill="none" xmlns="http://www.w3.org/2000/svg">
    <path d="M49.1115 28.2488C49.9094 28.2443 50.6967 28.0655 51.4185 27.7248C51.6348 27.6068 51.8785 27.5486 52.1247 27.556C52.3708 27.5634 52.6106 27.6362 52.8195 27.7669C53.8864 28.3677 55.0919 28.6779 56.3158 28.6667C57.7168 28.6792 58.3239 29.6024 57.8304 30.8999C57.5677 31.6373 57.1339 32.3017 56.5648 32.8383C56.2769 33.1019 56.2909 33.2859 56.4512 33.6181C57.7682 36.3799 56.831 39.2883 54.1318 40.8244C53.8095 41.0069 53.7286 41.1581 53.7893 41.5402C54.2563 44.4658 52.4832 47.0655 49.6127 47.7095C49.2609 47.7891 48.9636 47.8187 48.8873 48.3333C48.453 51.2651 46.2021 53.124 43.2444 52.979C42.6357 52.9494 42.3648 53.1006 42.0831 53.6496C41.4723 54.8257 40.4439 55.73 39.2005 56.184C37.9571 56.6381 36.5891 56.6091 35.366 56.1026C34.9099 55.9171 34.6562 55.8843 34.2655 56.3007C33.3398 57.3048 32.0616 57.9104 30.6995 57.99C29.3375 58.0697 27.9976 57.6174 26.9615 56.728C26.5817 56.4161 26.3389 56.3818 25.9092 56.6251C23.3874 58.038 20.4064 57.3003 18.803 54.8738C18.5321 54.4636 18.3173 54.3529 17.8145 54.4668C16.4827 54.7654 15.0872 54.5371 13.9194 53.8295C12.7516 53.1219 11.9017 51.9898 11.5473 50.6694C11.4119 50.1782 11.2235 50.0456 10.7254 50.0004C9.35274 49.8887 8.07762 49.2453 7.17078 48.207C6.26394 47.1686 5.7968 45.8171 5.86857 44.4393C5.8888 43.9714 5.75182 43.8155 5.3642 43.6595C2.60577 42.5071 1.32618 39.7078 2.27731 36.8836C2.4143 36.4781 2.38005 36.2723 2.03136 35.9885C-0.263182 34.1171 -0.660136 30.9981 1.07712 28.6028C1.31684 28.2722 1.38845 28.0725 1.12849 27.6796C-0.523145 25.2 0.00145457 22.1231 2.37383 20.3391C2.75522 20.0521 2.80659 19.84 2.68516 19.3909C1.90683 16.5714 3.33118 13.7955 6.07249 12.8146C6.52237 12.6586 6.63912 12.4715 6.65313 12.0021C6.74653 9.01725 8.88229 6.86828 11.8991 6.72013C12.3101 6.6983 12.4642 6.56418 12.5919 6.19147C13.5788 3.33606 16.2423 1.87327 19.1206 2.63741C19.5969 2.76373 19.7853 2.63741 20.0421 2.28497C20.4469 1.70241 20.9638 1.20672 21.5624 0.82697C22.161 0.447225 22.8293 0.191077 23.528 0.07356C24.2268 -0.0439567 24.942 -0.0204764 25.6315 0.142622C26.3211 0.305721 26.9712 0.605154 27.5437 1.02335C28.1197 1.41943 28.5272 2.01677 28.6863 2.69823C29.2654 5.01718 30.5372 6.78563 32.8707 7.64179C33.6615 7.93185 33.8623 8.52445 33.3922 9.24961C30.9233 13.0547 33.1244 18.5566 37.9065 19.7605C38.7175 19.9458 39.5586 19.9559 40.3739 19.7901C41.3624 19.6186 41.7982 19.9773 41.7142 20.9457C41.3764 24.8647 44.8228 28.2597 49.1115 28.2488ZM54.6688 30.4866C53.8547 30.2792 53.123 30.1155 52.4646 29.7615C52.1532 29.5977 51.8948 29.6336 51.5835 29.7412C46.3748 31.5408 40.3489 27.8339 39.8337 22.3555C39.7979 21.9765 39.678 21.8175 39.2655 21.8268C35.0313 21.9219 31.3093 18.4427 30.6275 14.4895C30.6042 14.3008 30.5419 14.119 30.4446 13.9558C30.3473 13.7925 30.2172 13.6514 30.0624 13.5413C29.1502 12.8567 29.1689 11.4703 30.1496 10.9011C30.7894 10.5299 30.8672 9.94514 31.1303 9.41024C31.1608 9.36798 31.1807 9.31893 31.1882 9.2673C31.1956 9.21567 31.1905 9.163 31.1732 9.1138C31.1559 9.06459 31.127 9.02031 31.0889 8.98476C31.0508 8.9492 31.0046 8.92343 30.9544 8.90964C28.8545 7.95056 28.0341 5.76885 26.549 4.22185C25.7909 3.43119 25.1029 2.81831 23.9712 3.03196C22.8395 3.24561 22.223 3.94738 22.0051 5.24019C21.9226 5.73298 21.7389 6.13065 21.3139 6.39732C20.6585 6.80902 20.1106 6.70922 19.3556 6.06203C18.5026 5.32752 17.4549 5.18716 16.5458 5.6862C15.5978 6.2055 15.1588 7.16459 15.3659 8.32328C15.4764 8.94707 15.3332 9.46482 14.849 9.85937C14.3338 10.2789 13.7718 10.2711 13.1725 10.0028C12.0128 9.48509 11.0274 9.64104 10.2491 10.4301C9.5361 11.1537 9.41312 12.1939 9.93772 13.3167C10.2008 13.8813 10.2288 14.424 9.86767 14.9386C9.48628 15.486 8.93366 15.6232 8.29075 15.5406C7.07966 15.3846 6.18613 15.8259 5.68644 16.7881C5.18674 17.7503 5.35642 18.7391 6.19391 19.6404C6.64223 20.1223 6.83993 20.651 6.61733 21.2732C6.39472 21.8954 5.91371 22.1824 5.2599 22.2744C4.74058 22.3347 4.25496 22.5627 3.8764 22.924C3.49784 23.2852 3.24691 23.76 3.16151 24.2768C2.9856 25.2125 3.46195 26.2308 4.40685 26.7548C5.0015 27.0854 5.4218 27.5142 5.40935 28.2035C5.39534 28.9256 4.94234 29.3482 4.30255 29.657C3.8548 29.8732 3.48636 30.2252 3.24943 30.663C3.0125 31.1007 2.91911 31.6021 2.98249 32.096C3.04307 32.5897 3.25784 33.0516 3.59612 33.4157C3.93439 33.7797 4.37887 34.0274 4.86607 34.1233C5.551 34.2684 6.0865 34.5444 6.2951 35.2617C6.50369 35.9791 6.17523 36.4485 5.69733 36.9117C5.32489 37.2587 5.0716 37.7149 4.97373 38.2149C4.87587 38.7149 4.93844 39.2331 5.15249 39.6953C5.59926 40.6388 6.53794 41.1566 7.64318 41.0271C8.29854 40.9507 8.82469 41.1348 9.19985 41.6759C9.57501 42.217 9.51119 42.7816 9.19985 43.3586C8.62544 44.4159 8.7204 45.4639 9.41779 46.2514C10.1152 47.0389 11.1301 47.2557 12.2525 46.8035C12.8627 46.5586 13.4216 46.5508 13.9228 46.9875C14.4241 47.4241 14.5455 47.9466 14.3898 48.6031C14.2526 49.0959 14.2782 49.6199 14.4629 50.0969C14.6475 50.5739 14.9812 50.9782 15.4141 51.2495C16.2858 51.8047 17.3662 51.7314 18.2426 51.0577C19.5751 50.0331 20.6554 50.4854 20.8889 52.1665C21.0446 53.2582 21.7373 54.0379 22.7772 54.2921C23.733 54.5198 24.6654 54.1455 25.2866 53.2878C26.3046 51.8843 27.4659 51.9887 28.1944 53.5607C28.3923 54.0161 28.7251 54.3997 29.1478 54.6593C29.5704 54.919 30.0625 55.0423 30.5575 55.0126C31.0388 54.9733 31.4978 54.7925 31.8769 54.4929C32.256 54.1932 32.5384 53.7881 32.6885 53.3283C33.2536 51.6269 34.3511 51.3915 35.5746 52.7123C35.8933 53.0756 36.3142 53.3339 36.782 53.4533C37.2498 53.5727 37.7427 53.5476 38.1961 53.3814C38.6514 53.2179 39.0452 52.9177 39.3238 52.5216C39.6025 52.1255 39.7522 51.653 39.7527 51.1684C39.8088 49.322 40.7599 48.7996 42.3991 49.7166C43.2724 50.2062 44.1457 50.1751 44.9661 49.6105C45.7631 49.0632 46.0853 48.2725 45.9623 47.3134C45.9296 47.0577 45.8331 46.8128 45.7802 46.5586C45.5062 45.2284 46.4153 44.3753 47.7307 44.7387C48.1495 44.879 48.5976 44.907 49.0305 44.8198C50.7927 44.3909 51.4527 42.518 50.3724 40.9523C50.0019 40.4174 49.8509 39.8794 50.1607 39.2805C50.4331 38.7534 50.8736 38.5008 51.4792 38.4758C52.7759 38.4244 53.6118 37.852 53.9574 36.8415C54.3201 35.7811 53.9979 34.8703 52.9144 33.9986C52.677 33.8329 52.493 33.6013 52.3852 33.3323C52.2773 33.0632 52.2503 32.7685 52.3073 32.4843C52.351 32.2122 52.4736 31.9591 52.6599 31.7564C52.8462 31.5536 53.0879 31.4103 53.355 31.3443C53.8748 31.21 54.3363 30.9087 54.6688 30.4866Z" fill="white"/>
    <path d="M33.4928 36.0204C33.4928 38.5763 31.4224 40.652 28.9084 40.6161C27.7034 40.603 26.5521 40.1144 25.7044 39.2564C24.8566 38.3984 24.3808 37.2401 24.38 36.0328C24.3752 35.4285 24.4909 34.8293 24.7205 34.2705C24.95 33.7116 25.2886 33.2043 25.7166 32.7783C26.1445 32.3524 26.6531 32.0164 27.2124 31.7901C27.7718 31.5638 28.3706 31.4517 28.9738 31.4604C29.5702 31.4598 30.1608 31.5775 30.7115 31.8069C31.2622 32.0362 31.762 32.3726 32.1822 32.7966C32.6024 33.2206 32.9346 33.7238 33.1595 34.2771C33.3845 34.8304 33.4977 35.4229 33.4928 36.0204Z" fill="white"/>
    <path d="M41.9999 7.49021C41.9999 8.88591 40.864 10.0193 39.4846 9.99975C38.8235 9.99258 38.1918 9.72579 37.7267 9.25726C37.2616 8.78873 37.0005 8.15625 37.0001 7.49703C36.9974 7.16704 37.0609 6.83985 37.1869 6.53468C37.3128 6.2295 37.4986 5.95249 37.7334 5.7199C37.9682 5.48731 38.2472 5.30384 38.5541 5.18026C38.861 5.05668 39.1896 4.99548 39.5205 5.00026C39.8477 4.99991 40.1717 5.06421 40.4739 5.18944C40.776 5.31467 41.0503 5.49835 41.2808 5.72987C41.5114 5.96139 41.6936 6.23616 41.8171 6.5383C41.9405 6.84045 42.0026 7.16398 41.9999 7.49021Z" fill="white"/>
    <path d="M60.9999 16.4902C60.9999 17.8859 59.864 19.0193 58.4846 18.9997C57.8235 18.9926 57.1918 18.7258 56.7267 18.2573C56.2616 17.7887 56.0005 17.1563 56.0001 16.497C55.9974 16.167 56.0609 15.8399 56.1869 15.5347C56.3128 15.2295 56.4986 14.9525 56.7334 14.7199C56.9682 14.4873 57.2472 14.3038 57.5541 14.1803C57.861 14.0567 58.1896 13.9955 58.5205 14.0003C58.8477 13.9999 59.1717 14.0642 59.4739 14.1894C59.776 14.3147 60.0503 14.4983 60.2808 14.7299C60.5114 14.9614 60.6936 15.2362 60.8171 15.5383C60.9405 15.8404 61.0026 16.164 60.9999 16.4902Z" fill="white"/>
    <path d="M53.9999 3.49413C53.9999 4.33155 53.3184 5.0116 52.4908 4.99985C52.0941 4.99555 51.7151 4.83547 51.436 4.55436C51.1569 4.27324 51.0003 3.89375 51 3.49822C50.9985 3.30022 51.0366 3.10391 51.1121 2.92081C51.1877 2.7377 51.2992 2.57149 51.44 2.43194C51.5809 2.29239 51.7483 2.18231 51.9325 2.10816C52.1166 2.03401 52.3137 1.99729 52.5123 2.00016C52.7086 1.99995 52.903 2.03852 53.0843 2.11366C53.2656 2.1888 53.4302 2.29901 53.5685 2.43792C53.7068 2.57683 53.8162 2.74169 53.8902 2.92298C53.9643 3.10427 54.0016 3.29839 53.9999 3.49413Z" fill="white"/>
    <path d="M23.5284 7.74381C24.5894 7.75359 25.6042 8.1804 26.3542 8.93234C27.1042 9.68428 27.5295 10.7012 27.5384 11.7642C27.5302 12.8424 27.0969 13.8736 26.3329 14.6331C25.5689 15.3927 24.5362 15.8188 23.4599 15.8188C22.9265 15.8125 22.3997 15.7007 21.9096 15.4897C21.4195 15.2787 20.9759 14.9727 20.6042 14.5894C20.2326 14.2061 19.9403 13.7529 19.744 13.256C19.5478 12.7591 19.4515 12.2283 19.4608 11.694C19.4677 11.1667 19.5785 10.6459 19.7869 10.1616C19.9953 9.67734 20.2972 9.23908 20.6751 8.87201C21.0531 8.50495 21.4998 8.21633 21.9894 8.02271C22.4791 7.8291 23.0021 7.73432 23.5284 7.74381Z" fill="white"/>
    <path d="M48.7264 36.7439C48.7327 37.6503 48.3806 38.5224 47.7471 39.1697C47.1135 39.8169 46.2501 40.1866 45.3453 40.1981C44.4402 40.2098 43.5673 39.8621 42.9174 39.2309C42.2675 38.5997 41.8934 37.7363 41.877 36.8297C41.8671 36.3737 41.9484 35.9203 42.1162 35.4963C42.2841 35.0723 42.535 34.6863 42.8543 34.3611C43.1735 34.0359 43.5546 33.7781 43.9749 33.6029C44.3953 33.4277 44.8464 33.3387 45.3017 33.3411C45.7496 33.3393 46.1935 33.4258 46.608 33.5958C47.0225 33.7658 47.3995 34.016 47.7176 34.3319C48.0356 34.6479 48.2883 35.0236 48.4614 35.4374C48.6345 35.8512 48.7246 36.2952 48.7264 36.7439Z" fill="white"/>
    <path d="M18.2496 33.7542C18.2565 34.1308 18.1881 34.505 18.0484 34.8548C17.9087 35.2045 17.7006 35.5228 17.4363 35.7907C17.172 36.0587 16.8569 36.271 16.5095 36.4151C16.1621 36.5592 15.7894 36.6322 15.4134 36.6299C15.0295 36.637 14.6481 36.5671 14.2915 36.4244C13.935 36.2817 13.6105 36.0691 13.3371 35.799C13.0638 35.5289 12.8471 35.2069 12.6997 34.8517C12.5523 34.4965 12.4773 34.1154 12.479 33.7308C12.4907 32.9837 12.7927 32.2705 13.3209 31.7429C13.849 31.2153 14.5617 30.9147 15.3075 30.905C16.9934 30.905 18.2512 32.1214 18.2496 33.7542Z" fill="white"/>
    <path d="M37.0513 44.2589C37.7054 44.2535 38.335 44.5082 38.8019 44.9672C39.2688 45.4262 39.535 46.052 39.542 46.7073C39.5459 47.0387 39.4839 47.3677 39.3595 47.6748C39.2351 47.982 39.0509 48.2613 38.8175 48.4964C38.5842 48.7314 38.3065 48.9175 38.0005 49.0439C37.6946 49.1702 37.3666 49.2342 37.0357 49.2321C36.3806 49.2239 35.755 48.9573 35.2946 48.4903C34.8343 48.0232 34.5761 47.3933 34.5762 46.7369C34.5778 46.0799 34.8392 45.4503 35.303 44.9859C35.7669 44.5215 36.3955 44.2601 37.0513 44.2589Z" fill="white"/>
    <path d="M29.5355 25.6047C29.5413 24.9762 29.7943 24.3753 30.2397 23.9327C30.685 23.49 31.2867 23.2413 31.9141 23.2405C32.2308 23.2463 32.5431 23.3149 32.8332 23.4424C33.1232 23.5698 33.3852 23.7534 33.604 23.9828C33.8228 24.2122 33.9941 24.4827 34.1081 24.7787C34.222 25.0747 34.2763 25.3904 34.2678 25.7076C34.2398 27.0924 33.2171 27.9969 31.6915 27.986C30.5131 27.9782 29.5231 26.8928 29.5355 25.6047Z" fill="white"/>
    <path d="M18.5751 22.1673C18.5715 22.4067 18.5206 22.6429 18.4253 22.8624C18.33 23.0819 18.1923 23.2803 18.0201 23.4462C17.8478 23.612 17.6445 23.7421 17.4218 23.8288C17.1991 23.9155 16.9615 23.9572 16.7227 23.9514C16.2541 23.9285 15.8118 23.7281 15.4852 23.3908C15.1586 23.0535 14.9721 22.6044 14.9636 22.1346C14.9661 21.6509 15.1601 21.1881 15.5031 20.8477C15.8461 20.5073 16.3099 20.3173 16.7927 20.3194C17.0319 20.3199 17.2686 20.3685 17.4887 20.4623C17.7088 20.5561 17.9079 20.6933 18.0741 20.8656C18.2404 21.038 18.3703 21.242 18.4564 21.4656C18.5425 21.6892 18.5828 21.9278 18.5751 22.1673Z" fill="white"/>
    <path d="M24.4672 45.583C24.4747 45.7773 24.443 45.9712 24.374 46.1529C24.3049 46.3346 24.1999 46.5005 24.0653 46.6406C23.9307 46.7807 23.7692 46.8921 23.5906 46.9682C23.4119 47.0442 23.2198 47.0834 23.0257 47.0832C22.8255 47.0941 22.6252 47.0637 22.4372 46.9939C22.2493 46.924 22.0777 46.8162 21.933 46.6772C21.7884 46.5381 21.6738 46.3707 21.5964 46.1855C21.519 46.0002 21.4804 45.801 21.483 45.6002C21.4786 45.3993 21.5153 45.1997 21.5907 45.0136C21.6661 44.8275 21.7787 44.6588 21.9216 44.5179C22.0645 44.3769 22.2346 44.2668 22.4215 44.1941C22.6084 44.1214 22.8082 44.0878 23.0086 44.0953C23.2024 44.095 23.3944 44.1335 23.5732 44.2085C23.752 44.2836 23.9141 44.3936 24.0499 44.5321C24.1857 44.6707 24.2926 44.835 24.3643 45.0154C24.4359 45.1959 24.4709 45.3888 24.4672 45.583Z" fill="white"/>
</svg>
