<svg width="30" height="30" viewBox="0 0 30 30" fill="none" xmlns="http://www.w3.org/2000/svg">
  <path
    d="M30 6.59416V24.8483C30 26.2146 29.4588 27.525 28.4954 28.4911C27.532 29.4572 26.2254 30 24.863 30H6.62677C6.17487 30.0004 5.72737 29.911 5.31005 29.7371C4.89274 29.5632 4.51384 29.3082 4.19525 28.9868L1.01035 25.7928C0.687802 25.4712 0.432338 25.0885 0.258881 24.6669C0.0854247 24.2453 -0.00256979 23.7932 5.7127e-05 23.3371V5.15169C5.7127e-05 3.78538 0.541269 2.47502 1.50464 1.50889C2.46801 0.542766 3.77462 1.07831e-06 5.13703 1.07831e-06H23.3391C23.791 -0.000358028 24.2385 0.0889799 24.6558 0.262868C25.0731 0.436756 25.452 0.691756 25.7706 1.01317L28.9555 4.20721C29.6029 4.83429 29.9781 5.69177 30 6.59416Z"
    fill="white" />
  <path
    d="M16.4058 29.9998V19.8898H19.7821L20.284 15.9314H16.4058V13.4101C16.4058 12.2678 16.7209 11.4858 18.3437 11.4858H20.4V7.95667C19.3995 7.84836 18.3938 7.79606 17.3876 7.80001C14.4033 7.80001 12.3543 9.64044 12.3543 13.0191V15.924H9V19.8824H12.3616V29.9998H16.4058Z"
    fill="#003370" />
</svg>