<svg width="21" height="21" viewBox="0 0 21 21" fill="none" xmlns="http://www.w3.org/2000/svg">
    <path d="M20.7865 4.56899V17.217C20.7865 18.1637 20.4115 19.0716 19.744 19.741C19.0765 20.4104 18.1712 20.7865 17.2272 20.7865H4.59158C4.27847 20.7868 3.9684 20.7249 3.67925 20.6044C3.3901 20.4839 3.12757 20.3072 2.90682 20.0845L0.700054 17.8714C0.476567 17.6486 0.29956 17.3834 0.179375 17.0913C0.0591894 16.7992 -0.00178056 16.4859 3.95824e-05 16.1699V3.56952C3.95824e-05 2.62283 0.375036 1.7149 1.04254 1.04549C1.71004 0.376074 2.61537 7.47147e-07 3.55937 7.47147e-07H16.1713C16.4844 -0.000248072 16.7944 0.0616528 17.0836 0.182137C17.3727 0.302621 17.6353 0.479306 17.856 0.702007L20.0628 2.91511C20.5114 3.3496 20.7714 3.94374 20.7865 4.56899Z" fill="#3CBFF0"/>
    <path d="M11.3672 20.7863V13.7813H13.7066L14.0543 11.0386H11.3672V9.29158C11.3672 8.50013 11.5855 7.95826 12.7099 7.95826H14.1347V5.51299C13.4415 5.43794 12.7447 5.4017 12.0475 5.40444C9.97968 5.40444 8.55998 6.67964 8.55998 9.02064V11.0334H6.23584V13.7761H8.56506V20.7863H11.3672Z" fill="#003370"/>
</svg>
