<svg width="65" height="65" viewBox="0 0 65 65" fill="none" xmlns="http://www.w3.org/2000/svg">
    <path d="M32.5 65C50.4493 65 65 50.4493 65 32.5C65 14.5507 50.4493 0 32.5 0C14.5507 0 0 14.5507 0 32.5C0 50.4493 14.5507 65 32.5 65Z" fill="#00C9FF"/>
    <path d="M36.1221 43.6633C36.1221 46.2662 36.1193 48.8691 36.1277 51.4719C36.1284 51.6799 36.0624 51.7489 35.8825 51.7671C35.3596 51.8195 34.8388 51.9045 34.3145 51.9322C33.5131 51.9743 32.7089 52.0194 31.9082 51.9903C31.0902 51.9605 30.2756 51.8398 29.4589 51.7649C29.2783 51.7482 29.2263 51.666 29.2263 51.4756C29.2311 46.2757 29.2304 41.0765 29.2304 35.8766C29.2304 35.5828 29.2304 35.5828 28.945 35.5828C27.2457 35.5828 25.5464 35.5799 23.8471 35.5872C23.6728 35.5879 23.6214 35.5407 23.6221 35.3553C23.6283 33.273 23.6276 31.1907 23.6228 29.1084C23.6221 28.9405 23.6679 28.8939 23.8269 28.8939C25.5207 28.8997 27.2144 28.8976 28.9075 28.8976C29.2304 28.8976 29.2297 28.8976 29.2304 28.5675C29.236 26.7091 29.204 24.85 29.2596 22.9931C29.3117 21.2693 29.7401 19.6407 30.6763 18.1902C31.4971 16.9179 32.6082 16.0279 33.9666 15.4703C34.761 15.1438 35.5867 14.9628 36.436 14.8712C37.5402 14.7512 38.6402 14.8174 39.7395 14.9163C40.5048 14.9846 41.2666 15.0915 42.0291 15.1838C42.1548 15.1991 42.2812 15.2202 42.4041 15.2529C42.4416 15.2631 42.4798 15.314 42.4957 15.3554C42.5117 15.3976 42.5013 15.4507 42.5013 15.4994C42.5013 17.2363 42.5013 18.974 42.5013 20.7109C42.5013 20.9545 42.5006 20.9537 42.2742 20.9552C41.2805 20.9625 40.286 20.9523 39.2923 20.9836C38.5138 21.0083 37.7916 21.2402 37.1832 21.7804C36.6985 22.2108 36.3895 22.7612 36.2652 23.4039C36.1763 23.8627 36.1339 24.3375 36.127 24.8064C36.1089 26.0897 36.1207 27.3729 36.1207 28.6562C36.1207 28.8968 36.1214 28.8968 36.3478 28.8976C38.2318 28.8976 40.1166 28.8976 42.0006 28.8976C42.2409 28.8976 42.2471 28.8997 42.2103 29.1535C42.0832 30.0201 41.9492 30.8853 41.8221 31.7513C41.695 32.6179 41.5735 33.4853 41.4499 34.3519C41.402 34.6864 41.3485 35.0208 41.3062 35.356C41.2853 35.521 41.2228 35.5872 41.0499 35.5865C39.4832 35.5792 37.9173 35.5821 36.3506 35.5821C36.1207 35.5821 36.1207 35.5828 36.1207 35.8177C36.1221 38.4336 36.1221 41.0481 36.1221 43.6633Z" fill="white"/>
</svg>
