<svg width="26" height="27" viewBox="0 0 26 27" fill="none" xmlns="http://www.w3.org/2000/svg">
<path d="M12.6256 6.95819C10.9047 6.95819 9.25419 7.64184 8.03728 8.85875C6.82037 10.0757 6.13672 11.7261 6.13672 13.4471C6.13672 15.1681 6.82037 16.8186 8.03728 18.0355C9.25419 19.2524 10.9047 19.936 12.6256 19.936C14.3466 19.936 15.9971 19.2524 17.214 18.0355C18.4309 16.8186 19.1146 15.1681 19.1146 13.4471C19.1146 11.7261 18.4309 10.0757 17.214 8.85875C15.9971 7.64184 14.3466 6.95819 12.6256 6.95819ZM12.6256 17.6613C11.5076 17.6613 10.4354 17.2171 9.6448 16.4266C8.85423 15.636 8.41009 14.5638 8.41009 13.4457C8.41009 12.3277 8.85423 11.2554 9.6448 10.4649C10.4354 9.6743 11.5076 9.23016 12.6256 9.23016C13.7437 9.23016 14.8159 9.6743 15.6065 10.4649C16.3971 11.2554 16.8412 12.3277 16.8412 13.4457C16.8412 14.5638 16.3971 15.636 15.6065 16.4266C14.8159 17.2171 13.7437 17.6613 12.6256 17.6613Z" fill="white"/>
<path d="M19.3714 8.23233C20.2069 8.23233 20.8842 7.55504 20.8842 6.71956C20.8842 5.88408 20.2069 5.20679 19.3714 5.20679C18.5359 5.20679 17.8586 5.88408 17.8586 6.71956C17.8586 7.55504 18.5359 8.23233 19.3714 8.23233Z" fill="white"/>
<path d="M24.6015 5.18145C24.2766 4.34252 23.7802 3.58066 23.1439 2.94465C22.5077 2.30863 21.7456 1.81247 20.9066 1.48793C19.9247 1.11935 18.8875 0.920061 17.8389 0.898533C16.4875 0.839594 16.0595 0.822754 12.6326 0.822754C9.20575 0.822754 8.76651 0.822754 7.42634 0.898533C6.37861 0.918961 5.34208 1.11829 4.3615 1.48793C3.52223 1.81209 2.75999 2.30812 2.12368 2.94418C1.48738 3.58025 0.991061 4.3423 0.666574 5.18145C0.29793 6.16323 0.0990944 7.20059 0.0785856 8.2491C0.0182431 9.59909 0 10.0271 0 13.4554C0 16.8823 -1.04555e-08 17.3187 0.0785856 18.6617C0.0996354 19.7114 0.297503 20.747 0.666574 21.7307C0.991972 22.5696 1.48877 23.3313 2.12523 23.9673C2.76169 24.6033 3.52381 25.0995 4.36291 25.4243C5.34163 25.8076 6.37859 26.0212 7.42915 26.0558C8.78054 26.1147 9.20855 26.1329 12.6354 26.1329C16.0623 26.1329 16.5016 26.1329 17.8417 26.0558C18.8902 26.0344 19.9274 25.8356 20.9094 25.4678C21.7482 25.1425 22.51 24.6459 23.1462 24.0097C23.7824 23.3735 24.279 22.6117 24.6043 21.7728C24.9734 20.7905 25.1713 19.7549 25.1923 18.7052C25.2527 17.3552 25.2709 16.9272 25.2709 13.4989C25.2709 10.0706 25.2709 9.63557 25.1923 8.2926C25.176 7.22927 24.9761 6.17675 24.6015 5.18145ZM22.8923 18.5578C22.8832 19.3666 22.7356 20.1678 22.4558 20.9266C22.2451 21.4723 21.9225 21.9679 21.5087 22.3814C21.0949 22.795 20.5992 23.1173 20.0534 23.3277C19.3029 23.6062 18.5102 23.7538 17.7098 23.7641C16.3767 23.8259 16.0006 23.8413 12.5821 23.8413C9.16084 23.8413 8.81141 23.8413 7.45301 23.7641C6.65301 23.7544 5.8607 23.6067 5.11087 23.3277C4.56314 23.1186 4.06541 22.7968 3.64987 22.3832C3.23433 21.9696 2.91024 21.4734 2.69857 20.9266C2.42275 20.1759 2.27521 19.3842 2.26214 18.5845C2.2018 17.2514 2.18777 16.8753 2.18777 13.4568C2.18777 10.0369 2.18777 9.68749 2.26214 8.32768C2.27121 7.5194 2.41883 6.71867 2.69857 5.96029C3.12659 4.85307 4.00366 3.98162 5.11087 3.55781C5.86107 3.28015 6.65315 3.13256 7.45301 3.12138C8.78756 3.06104 9.16224 3.0442 12.5821 3.0442C16.002 3.0442 16.3528 3.0442 17.7098 3.12138C18.5103 3.13101 19.3031 3.27865 20.0534 3.55781C20.5992 3.76869 21.0948 4.09136 21.5086 4.50509C21.9223 4.91883 22.245 5.4145 22.4558 5.96029C22.7317 6.71099 22.8792 7.50276 22.8923 8.30242C22.9526 9.63698 22.9681 10.0117 22.9681 13.4315C22.9681 16.85 22.9681 17.2177 22.9077 18.5593H22.8923V18.5578Z" fill="white"/>
</svg>
