<svg width="31" height="30" viewBox="0 0 31 30" fill="none" xmlns="http://www.w3.org/2000/svg">
  <path
    d="M30.3999 6.59416V24.8483C30.3999 26.2146 29.8587 27.525 28.8953 28.4911C27.9319 29.4572 26.6253 30 25.2629 30H7.02668C6.57477 30.0004 6.12727 29.911 5.70995 29.7371C5.29264 29.5632 4.91374 29.3082 4.59515 28.9868L1.41025 25.7928C1.0877 25.4712 0.83224 25.0885 0.658784 24.6669C0.485327 24.2453 0.397333 23.7932 0.399959 23.3371V5.15169C0.399959 3.78538 0.941171 2.47502 1.90454 1.50889C2.86791 0.542766 4.17452 1.07831e-06 5.53693 1.07831e-06H23.739C24.1909 -0.000358028 24.6384 0.0889799 25.0557 0.262868C25.473 0.436756 25.8519 0.691756 26.1705 1.01317L29.3554 4.20721C30.0028 4.83429 30.378 5.69177 30.3999 6.59416Z"
    fill="white" />
  <mask id="path-2-inside-1_2939_2076" fill="white">
    <path
      d="M14.8323 7.21631C12.5357 7.21631 10.3331 8.12864 8.70915 9.75261C7.08519 11.3766 6.17285 13.5791 6.17285 15.8758C6.17285 18.1724 7.08519 20.375 8.70915 21.9989C10.3331 23.6229 12.5357 24.5352 14.8323 24.5352C17.1289 24.5352 19.3315 23.6229 20.9555 21.9989C22.5794 20.375 23.4918 18.1724 23.4918 15.8758C23.4918 13.5791 22.5794 11.3766 20.9555 9.75261C19.3315 8.12864 17.1289 7.21631 14.8323 7.21631ZM14.8323 21.4995C13.3403 21.4995 11.9094 20.9068 10.8544 19.8518C9.79936 18.7968 9.20666 17.3659 9.20666 15.8739C9.20666 14.3819 9.79936 12.951 10.8544 11.896C11.9094 10.8409 13.3403 10.2482 14.8323 10.2482C16.3243 10.2482 17.7552 10.8409 18.8102 11.896C19.8653 12.951 20.458 14.3819 20.458 15.8739C20.458 17.3659 19.8653 18.7968 18.8102 19.8518C17.7552 20.9068 16.3243 21.4995 14.8323 21.4995Z" />
  </mask>
  <path
    d="M14.8323 7.21631C12.5357 7.21631 10.3331 8.12864 8.70915 9.75261C7.08519 11.3766 6.17285 13.5791 6.17285 15.8758C6.17285 18.1724 7.08519 20.375 8.70915 21.9989C10.3331 23.6229 12.5357 24.5352 14.8323 24.5352C17.1289 24.5352 19.3315 23.6229 20.9555 21.9989C22.5794 20.375 23.4918 18.1724 23.4918 15.8758C23.4918 13.5791 22.5794 11.3766 20.9555 9.75261C19.3315 8.12864 17.1289 7.21631 14.8323 7.21631ZM14.8323 21.4995C13.3403 21.4995 11.9094 20.9068 10.8544 19.8518C9.79936 18.7968 9.20666 17.3659 9.20666 15.8739C9.20666 14.3819 9.79936 12.951 10.8544 11.896C11.9094 10.8409 13.3403 10.2482 14.8323 10.2482C16.3243 10.2482 17.7552 10.8409 18.8102 11.896C19.8653 12.951 20.458 14.3819 20.458 15.8739C20.458 17.3659 19.8653 18.7968 18.8102 19.8518C17.7552 20.9068 16.3243 21.4995 14.8323 21.4995Z"
    fill="#003370" />
  <path
    d="M14.8323 7.21631V3.21631V7.21631ZM6.17285 15.8758H2.17285H6.17285ZM14.8323 24.5352V20.5352V24.5352ZM14.8323 21.4995V17.4995V21.4995ZM14.8323 3.21631C11.4748 3.21631 8.25483 4.55007 5.88072 6.92418L11.5376 12.581C12.4114 11.7072 13.5965 11.2163 14.8323 11.2163V3.21631ZM5.88072 6.92418C3.50661 9.29829 2.17285 12.5183 2.17285 15.8758H10.1729C10.1729 14.64 10.6638 13.4549 11.5376 12.581L5.88072 6.92418ZM2.17285 15.8758C2.17285 19.2333 3.50661 22.4532 5.88072 24.8274L11.5376 19.1705C10.6638 18.2967 10.1729 17.1115 10.1729 15.8758H2.17285ZM5.88072 24.8274C8.25483 27.2015 11.4748 28.5352 14.8323 28.5352V20.5352C13.5965 20.5352 12.4114 20.0443 11.5376 19.1705L5.88072 24.8274ZM14.8323 28.5352C18.1898 28.5352 21.4098 27.2015 23.7839 24.8274L18.127 19.1705C17.2532 20.0443 16.0681 20.5352 14.8323 20.5352V28.5352ZM23.7839 24.8274C26.158 22.4532 27.4918 19.2333 27.4918 15.8758H19.4918C19.4918 17.1115 19.0009 18.2967 18.127 19.1705L23.7839 24.8274ZM27.4918 15.8758C27.4918 12.5183 26.158 9.29829 23.7839 6.92418L18.127 12.581C19.0009 13.4548 19.4918 14.64 19.4918 15.8758H27.4918ZM23.7839 6.92418C21.4098 4.55007 18.1898 3.21631 14.8323 3.21631V11.2163C16.0681 11.2163 17.2532 11.7072 18.127 12.581L23.7839 6.92418ZM14.8323 17.4995C14.4012 17.4995 13.9877 17.3283 13.6828 17.0234L8.02595 22.6803C9.83111 24.4854 12.2794 25.4995 14.8323 25.4995V17.4995ZM13.6828 17.0234C13.3779 16.7185 13.2067 16.305 13.2067 15.8739H5.20666C5.20666 18.4268 6.22079 20.8751 8.02595 22.6803L13.6828 17.0234ZM13.2067 15.8739C13.2067 15.4427 13.3779 15.0293 13.6828 14.7244L8.02595 9.06753C6.22079 10.8727 5.20666 13.321 5.20666 15.8739H13.2067ZM13.6828 14.7244C13.9877 14.4195 14.4012 14.2482 14.8323 14.2482V6.24824C12.2794 6.24824 9.83111 7.26237 8.02595 9.06753L13.6828 14.7244ZM14.8323 14.2482C15.2635 14.2482 15.677 14.4195 15.9818 14.7244L21.6387 9.06753C19.8335 7.26237 17.3852 6.24824 14.8323 6.24824V14.2482ZM15.9818 14.7244C16.2867 15.0293 16.458 15.4427 16.458 15.8739H24.458C24.458 13.321 23.4438 10.8727 21.6387 9.06753L15.9818 14.7244ZM16.458 15.8739C16.458 16.305 16.2867 16.7185 15.9818 17.0234L21.6387 22.6803C23.4438 20.8751 24.458 18.4268 24.458 15.8739H16.458ZM15.9818 17.0234C15.677 17.3283 15.2635 17.4995 14.8323 17.4995V25.4995C17.3852 25.4995 19.8335 24.4854 21.6387 22.6803L15.9818 17.0234Z"
    fill="#003370" mask="url(#path-2-inside-1_2939_2076)" />
  <path
    d="M24.2137 8.65956C25.4093 8.65956 26.3786 7.69032 26.3786 6.4947C26.3786 5.29908 25.4093 4.32983 24.2137 4.32983C23.0181 4.32983 22.0488 5.29908 22.0488 6.4947C22.0488 7.69032 23.0181 8.65956 24.2137 8.65956Z"
    fill="#003370" />
</svg>