<svg width="21" height="21" viewBox="0 0 21 21" fill="none" xmlns="http://www.w3.org/2000/svg">
    <path d="M20.7865 4.56899V17.217C20.7865 18.1637 20.4115 19.0716 19.744 19.741C19.0765 20.4104 18.1712 20.7865 17.2272 20.7865H4.59158C4.27847 20.7868 3.9684 20.7249 3.67925 20.6044C3.3901 20.4839 3.12757 20.3072 2.90682 20.0845L0.700054 17.8714C0.476567 17.6486 0.29956 17.3834 0.179375 17.0913C0.0591894 16.7992 -0.00178056 16.4859 3.95824e-05 16.1699V3.56952C3.95824e-05 2.62283 0.375036 1.7149 1.04254 1.04549C1.71004 0.376074 2.61537 7.47147e-07 3.55937 7.47147e-07H16.1713C16.4844 -0.000248072 16.7944 0.0616528 17.0836 0.182137C17.3727 0.302621 17.6353 0.479306 17.856 0.702007L20.0628 2.91511C20.5114 3.3496 20.7714 3.94374 20.7865 4.56899Z" fill="#3CBFF0"/>
    <mask id="path-2-inside-1_1960_112" fill="white">
        <path d="M10 5C8.4087 5 6.88258 5.63214 5.75736 6.75736C4.63214 7.88258 4 9.4087 4 11C4 12.5913 4.63214 14.1174 5.75736 15.2426C6.88258 16.3679 8.4087 17 10 17C11.5913 17 13.1174 16.3679 14.2426 15.2426C15.3679 14.1174 16 12.5913 16 11C16 9.4087 15.3679 7.88258 14.2426 6.75736C13.1174 5.63214 11.5913 5 10 5ZM10 14.8966C8.96621 14.8966 7.97475 14.486 7.24375 13.755C6.51275 13.0239 6.10208 12.0325 6.10208 10.9987C6.10208 9.96491 6.51275 8.97346 7.24375 8.24246C7.97475 7.51145 8.96621 7.10078 10 7.10078C11.0338 7.10078 12.0252 7.51145 12.7562 8.24246C13.4873 8.97346 13.8979 9.96491 13.8979 10.9987C13.8979 12.0325 13.4873 13.0239 12.7562 13.755C12.0252 14.486 11.0338 14.8966 10 14.8966Z"/>
    </mask>
    <path d="M10 5C8.4087 5 6.88258 5.63214 5.75736 6.75736C4.63214 7.88258 4 9.4087 4 11C4 12.5913 4.63214 14.1174 5.75736 15.2426C6.88258 16.3679 8.4087 17 10 17C11.5913 17 13.1174 16.3679 14.2426 15.2426C15.3679 14.1174 16 12.5913 16 11C16 9.4087 15.3679 7.88258 14.2426 6.75736C13.1174 5.63214 11.5913 5 10 5ZM10 14.8966C8.96621 14.8966 7.97475 14.486 7.24375 13.755C6.51275 13.0239 6.10208 12.0325 6.10208 10.9987C6.10208 9.96491 6.51275 8.97346 7.24375 8.24246C7.97475 7.51145 8.96621 7.10078 10 7.10078C11.0338 7.10078 12.0252 7.51145 12.7562 8.24246C13.4873 8.97346 13.8979 9.96491 13.8979 10.9987C13.8979 12.0325 13.4873 13.0239 12.7562 13.755C12.0252 14.486 11.0338 14.8966 10 14.8966Z" fill="#003370"/>
    <path d="M10 5V1V5ZM4 11H0H4ZM10 17V13V17ZM10 14.8966V10.8966V14.8966ZM10 1C7.34783 1 4.8043 2.05357 2.92893 3.92893L8.58579 9.58579C8.96086 9.21071 9.46957 9 10 9V1ZM2.92893 3.92893C1.05357 5.8043 0 8.34784 0 11H8C8 10.4696 8.21071 9.96086 8.58579 9.58579L2.92893 3.92893ZM0 11C0 13.6522 1.05357 16.1957 2.92893 18.0711L8.58579 12.4142C8.21071 12.0391 8 11.5304 8 11H0ZM2.92893 18.0711C4.8043 19.9464 7.34784 21 10 21V13C9.46957 13 8.96086 12.7893 8.58579 12.4142L2.92893 18.0711ZM10 21C12.6522 21 15.1957 19.9464 17.0711 18.0711L11.4142 12.4142C11.0391 12.7893 10.5304 13 10 13V21ZM17.0711 18.0711C18.9464 16.1957 20 13.6522 20 11H12C12 11.5304 11.7893 12.0391 11.4142 12.4142L17.0711 18.0711ZM20 11C20 8.34784 18.9464 5.8043 17.0711 3.92893L11.4142 9.58579C11.7893 9.96086 12 10.4696 12 11H20ZM17.0711 3.92893C15.1957 2.05357 12.6522 1 10 1V9C10.5304 9 11.0391 9.21071 11.4142 9.58579L17.0711 3.92893ZM10 10.8966C10.0271 10.8966 10.053 10.9074 10.0722 10.9265L4.41533 16.5834C5.89647 18.0645 7.90534 18.8966 10 18.8966V10.8966ZM10.0722 10.9265C10.0913 10.9457 10.1021 10.9716 10.1021 10.9987H2.10208C2.10208 13.0934 2.93418 15.1022 4.41533 16.5834L10.0722 10.9265ZM10.1021 10.9987C10.1021 11.0258 10.0913 11.0517 10.0722 11.0709L4.41533 5.41403C2.93418 6.89517 2.10208 8.90404 2.10208 10.9987H10.1021ZM10.0722 11.0709C10.053 11.09 10.0271 11.1008 10 11.1008V3.10078C7.90534 3.10078 5.89647 3.93288 4.41533 5.41403L10.0722 11.0709ZM10 11.1008C9.97293 11.1008 9.94697 11.09 9.92782 11.0709L15.5847 5.41403C14.1035 3.93288 12.0947 3.10078 10 3.10078V11.1008ZM9.92782 11.0709C9.90868 11.0517 9.89793 11.0258 9.89793 10.9987H17.8979C17.8979 8.90404 17.0658 6.89518 15.5847 5.41403L9.92782 11.0709ZM9.89793 10.9987C9.89793 10.9716 9.90868 10.9457 9.92782 10.9265L15.5847 16.5834C17.0658 15.1022 17.8979 13.0934 17.8979 10.9987H9.89793ZM9.92782 10.9265C9.94697 10.9074 9.97293 10.8966 10 10.8966V18.8966C12.0947 18.8966 14.1035 18.0645 15.5847 16.5834L9.92782 10.9265Z" fill="#003370" mask="url(#path-2-inside-1_1960_112)"/>
    <path d="M16.5 6C17.3284 6 18 5.32843 18 4.5C18 3.67157 17.3284 3 16.5 3C15.6716 3 15 3.67157 15 4.5C15 5.32843 15.6716 6 16.5 6Z" fill="#003370"/>
</svg>
