<svg width="242" height="132" viewBox="0 0 242 132" fill="none" xmlns="http://www.w3.org/2000/svg">
    <path d="M144.305 49.8019L144.305 49.8015C148.664 43.7863 150.066 36.8737 148.297 29.8412C146.603 23.0941 142.149 16.8369 135.784 12.2095L135.49 12.6139L135.784 12.2095C127.901 6.47977 118.055 4.87889 109.439 7.96233C108.7 8.22667 107.886 8.18649 107.176 7.85062C106.467 7.51475 105.919 6.91069 105.655 6.17135C105.391 5.432 105.431 4.61793 105.767 3.90821C106.103 3.19849 106.707 2.65127 107.446 2.38692L107.446 2.38689C117.884 -1.34681 129.778 0.527046 139.263 7.42059L139.557 7.01612L139.263 7.4206C146.778 12.8813 152.016 20.3382 154.037 28.399L154.037 28.3992C156.214 37.0687 154.46 45.9046 149.09 53.2911L149.09 53.292C147.584 55.3732 143.37 60.5123 136.955 63.4559L136.953 63.4566C133.996 64.8245 130.778 65.5389 127.52 65.5511C122.973 65.5508 117.639 64.1286 111.807 59.8901C101.633 52.4952 98.1814 39.2149 103.693 29.0006C104.066 28.3098 104.698 27.7954 105.45 27.5708C106.203 27.3461 107.013 27.4296 107.704 27.8027C108.395 28.1758 108.909 28.8081 109.134 29.5605C109.359 30.3128 109.275 31.1236 108.902 31.8144C104.761 39.4809 107.556 49.4808 115.29 55.1009C121.814 59.8509 128.308 60.8929 134.494 58.0649C139.806 55.6432 143.344 51.1255 144.305 49.8019Z" fill="#00C9FF" stroke="#00C9FF"/>
    <path d="M100.514 70.4261L100.517 70.4279C106.563 74.8796 113.863 77.3042 121.371 77.3545C125.106 77.3588 128.814 76.7189 132.331 75.463L100.514 70.4261ZM100.514 70.4261C93.0028 64.9653 87.7618 57.5084 85.7413 49.4477L85.7413 49.4476M100.514 70.4261L85.7413 49.4476M85.7413 49.4476C83.5671 40.7781 85.3212 31.9451 90.6906 24.5555L90.6912 24.5547M85.7413 49.4476L90.6912 24.5547M90.6912 24.5547C92.1971 22.4735 96.4108 17.3347 102.826 14.3911C108.493 11.8049 117.437 10.29 127.977 17.9505L127.977 17.9505M90.6912 24.5547L127.977 17.9505M127.977 17.9505C138.152 25.3442 141.604 38.621 136.079 48.8344C135.696 49.5035 135.066 49.9965 134.324 50.2084C133.581 50.4208 132.784 50.334 132.104 49.9664C131.424 49.5989 130.914 48.9798 130.685 48.2415C130.456 47.5051 130.523 46.7083 130.872 46.0209C135.01 38.355 132.21 28.3584 124.482 22.7396C117.958 17.9898 111.461 16.9446 105.274 19.7758C99.9634 22.1972 96.426 26.7137 95.467 28.0387C90.5641 34.7829 89.7811 42.0868 91.692 48.7561C93.5986 55.4105 98.1802 61.4182 103.988 65.6372C111.871 71.3669 121.714 72.9678 130.329 69.8843L130.33 69.8842M127.977 17.9505L130.33 69.8842M130.33 69.8842C131.07 69.6187 131.885 69.6581 132.595 69.9935M130.33 69.8842L132.595 69.9935M132.595 69.9935C133.306 70.3289 133.855 70.933 134.12 71.6728M132.595 69.9935L134.12 71.6728M134.12 71.6728C134.385 72.4126 134.346 73.2275 134.011 73.9383M134.12 71.6728L134.011 73.9383M134.011 73.9383C133.675 74.6489 133.072 75.1972 132.332 75.4627L134.011 73.9383Z" fill="#00C9FF" stroke="#00C9FF"/>
    <path d="M28.8849 130.385L28.8724 130.377L28.8593 130.369C28.209 129.987 27.6549 129.461 27.2398 128.831L22.7464 121.708C22.746 121.708 22.7456 121.707 22.7452 121.706C21.6533 119.941 20.5365 118.583 19.388 117.66L19.3861 117.659C18.1802 116.699 16.6752 116.195 15.1349 116.234H9.64433H9.14433V116.734V129.151H9.14423L9.14442 129.161C9.14914 129.403 9.10302 129.645 9.00904 129.869C8.91506 130.092 8.77529 130.294 8.5987 130.461L8.59857 130.461L8.58875 130.471C8.41164 130.647 8.20077 130.787 7.96869 130.88C7.73661 130.974 7.48806 131.019 7.23791 131.015L7.23791 131.015H7.2287L2.42797 131.015L2.42261 131.015C2.17127 131.017 1.92208 130.968 1.69069 130.87C1.45929 130.772 1.25067 130.627 1.07795 130.444L1.07154 130.437L1.06488 130.431C0.883841 130.253 0.74051 130.041 0.643458 129.807C0.546412 129.572 0.497647 129.321 0.500087 129.067H0.50011V129.062V97.3018H0.500127L0.500094 97.2977C0.497992 97.0417 0.547074 96.7878 0.644456 96.551C0.741836 96.3142 0.885543 96.0993 1.06716 95.9188L1.07484 95.9112L1.08219 95.9032C1.25296 95.7181 1.46054 95.5708 1.69159 95.4707C1.92266 95.3706 2.17212 95.32 2.42392 95.322L2.42392 95.322H2.42797H7.2287V95.3221L7.23457 95.322C7.48369 95.3191 7.7306 95.3691 7.95897 95.4687C8.18732 95.5683 8.39193 95.7153 8.55924 95.8999L8.56569 95.907L8.57241 95.9139C8.93429 96.2836 9.13546 96.7813 9.13213 97.2986H9.13212V97.3018V109.527V110.027H9.63212H15.1243C16.6425 110.056 18.1298 109.595 19.3654 108.712L19.3661 108.711C20.5843 107.838 21.7058 106.446 22.7452 104.579C22.7454 104.579 22.7456 104.578 22.7457 104.578L26.7146 97.5288L26.7147 97.5288L26.7166 97.5253C27.5501 96.0167 28.625 95.326 29.9477 95.3037H35.8468C36.1918 95.3037 36.3572 95.3808 36.4332 95.4475C36.4956 95.5022 36.5657 95.6095 36.5683 95.861C36.5408 96.2732 36.4172 96.6734 36.2072 97.0294L36.2034 97.0357L36.1999 97.0421L30.6632 107.086L30.6631 107.086L30.659 107.094C29.9759 108.386 29.0994 109.566 28.0597 110.594C27.0289 111.539 25.7655 112.193 24.3988 112.489L24.4011 113.467C25.3995 113.678 26.4718 114.316 27.6154 115.452L27.6157 115.452C28.7648 116.591 29.7919 117.847 30.6803 119.2L37.0633 129.368L37.0631 129.368L37.0707 129.379C37.2729 129.683 37.3943 130.033 37.4234 130.396C37.4202 130.659 37.3447 130.776 37.2687 130.84C37.1747 130.92 36.9799 131.002 36.595 131.002H30.7549C30.0869 130.972 29.4401 130.758 28.8849 130.385Z" fill="#00C9FF" stroke="#00C9FF"/>
    <path d="M42.1032 129.165L42.1034 129.158V129.151V97.3386H42.1036L42.1033 97.3261C42.0968 97.0671 42.1434 96.8095 42.2403 96.5693C42.3371 96.329 42.4822 96.1112 42.6664 95.9291L42.6665 95.9291L42.6725 95.923C42.8477 95.7437 43.0576 95.6021 43.2894 95.5067C43.5211 95.4112 43.7699 95.364 44.0205 95.3679L44.0205 95.368H44.0282H48.8351V95.368L48.8425 95.3679C49.0905 95.3642 49.3365 95.412 49.565 95.5081C49.7935 95.6043 49.9997 95.7469 50.1703 95.9267L50.1702 95.9268L50.178 95.9347C50.3605 96.1187 50.5039 96.3376 50.5997 96.5784C50.6955 96.8191 50.7417 97.0768 50.7356 97.3358L50.7354 97.3358V97.3477V124.28V124.78H51.2354H73.4984V124.78L73.5059 124.78C73.7538 124.776 73.9998 124.824 74.2283 124.92C74.4569 125.016 74.663 125.159 74.8337 125.339L74.8391 125.345L74.8448 125.35C75.0232 125.527 75.1642 125.737 75.2594 125.969C75.3546 126.202 75.402 126.451 75.3988 126.702H75.3988V126.708V129.111V129.113C75.3994 129.362 75.3507 129.61 75.2555 129.841L75.7178 130.031L75.2555 129.841C75.1603 130.072 75.0204 130.282 74.8439 130.458C74.6674 130.635 74.4578 130.775 74.227 130.871C73.9962 130.966 73.7488 131.015 73.499 131.015H73.4984L44.0282 131.015L44.0207 131.015C43.5147 131.022 43.0264 130.829 42.6626 130.477L42.6627 130.477L42.6534 130.469C42.4738 130.304 42.3317 130.102 42.2367 129.877C42.1418 129.652 42.0963 129.409 42.1032 129.165Z" fill="#00C9FF" stroke="#00C9FF"/>
    <path d="M80.5643 129.165L80.5645 129.158V129.151V97.288C80.568 96.7778 80.7721 96.2895 81.1327 95.9285C81.4932 95.5675 81.9812 95.3628 82.4913 95.3585H87.2412V95.3585L87.2462 95.3585C87.5004 95.3559 87.7526 95.4039 87.9881 95.4996C88.2236 95.5954 88.4378 95.7369 88.6181 95.9161C88.7984 96.0953 88.9413 96.3086 89.0385 96.5435C89.1357 96.7784 89.1853 97.0302 89.1843 97.2845V97.2864L89.1842 129.102L89.1843 129.108C89.1874 129.356 89.1383 129.603 89.0402 129.831C88.9421 130.059 88.7972 130.264 88.6148 130.433L88.606 130.441L88.5975 130.45C88.421 130.63 88.2102 130.772 87.9777 130.869C87.7451 130.966 87.4954 131.016 87.2434 131.015H87.2412L82.4893 131.014L82.4818 131.015C81.9758 131.022 81.4874 130.829 81.1236 130.477L81.1237 130.477L81.1145 130.469C80.9348 130.303 80.7927 130.101 80.6978 129.877C80.6029 129.652 80.5573 129.409 80.5643 129.165Z" fill="#00C9FF" stroke="#00C9FF"/>
    <path d="M97.6574 129.808C97.5933 129.651 97.5502 129.487 97.529 129.32V129.05V97.3386H97.5292L97.5288 97.3258C97.5222 97.067 97.5674 96.8095 97.6616 96.5684C97.7559 96.3273 97.8974 96.1075 98.0778 95.9219L98.0778 95.9219L98.0841 95.9152C98.2523 95.7357 98.4562 95.5935 98.6827 95.4976C98.9092 95.4018 99.1534 95.3544 99.3993 95.3587L99.3993 95.3588H99.408H109.805C110.381 95.369 110.935 95.5792 111.372 95.9534L111.383 95.9625L111.394 95.971C111.88 96.3418 112.239 96.8539 112.423 97.437L112.423 97.4371L112.428 97.45L119.968 119.273L120.44 120.641L120.913 119.273L128.45 97.4499L128.452 97.4431L128.454 97.4363C128.637 96.8536 128.996 96.3416 129.481 95.9707L129.492 95.9624L129.502 95.9536C129.941 95.5791 130.496 95.3689 131.072 95.3588H141.469V95.3589L141.479 95.3587C141.722 95.354 141.963 95.4009 142.187 95.4964C142.41 95.5918 142.611 95.7335 142.775 95.9122L142.775 95.9122L142.781 95.9179C142.959 96.1054 143.098 96.3263 143.191 96.5678C143.284 96.8093 143.328 97.0667 143.321 97.3254L143.321 97.3253V97.3386V129.05H143.321L143.321 129.063C143.328 129.319 143.282 129.574 143.187 129.812L143.651 129.998L143.187 129.812C143.091 130.049 142.948 130.265 142.767 130.445L142.766 130.445L142.76 130.452C142.587 130.63 142.38 130.77 142.151 130.865C141.922 130.96 141.676 131.007 141.429 131.003V131.003H141.421H136.818V131.003L136.81 131.003C136.562 131.007 136.315 130.96 136.086 130.865C135.857 130.771 135.649 130.63 135.476 130.452L135.476 130.452L135.469 130.445C135.287 130.265 135.144 130.049 135.049 129.812C134.954 129.574 134.908 129.319 134.915 129.063L134.915 129.063V129.05V104.085L133.944 103.916L124.929 129.027C124.71 129.585 124.335 130.068 123.849 130.419L123.838 130.427L123.828 130.435C123.381 130.795 122.825 130.995 122.251 131.003H118.593C118.021 130.995 117.468 130.795 117.023 130.436L117.015 130.429L117.007 130.423C116.523 130.064 116.145 129.58 115.914 129.023L106.921 103.916L105.95 104.085V129.05H105.95L105.95 129.063C105.957 129.319 105.911 129.574 105.816 129.812C105.721 130.049 105.578 130.265 105.396 130.445L105.396 130.445L105.389 130.452C105.216 130.63 105.009 130.771 104.779 130.866C104.55 130.961 104.304 131.007 104.056 131.003L104.056 131.003H104.047L99.4569 131.003L99.4531 131.003C99.1979 131.005 98.9448 130.956 98.7086 130.859C98.4725 130.762 98.2579 130.619 98.0774 130.439C97.897 130.258 97.7542 130.044 97.6574 129.808L97.1948 129.997L97.6574 129.808Z" fill="#00C9FF" stroke="#00C9FF"/>
    <path d="M151.653 97.2347H151.653L151.653 97.2263C151.649 96.9808 151.697 96.7372 151.793 96.5113C151.889 96.2854 152.032 96.0822 152.211 95.915L152.217 95.9094L152.223 95.9036C152.401 95.7271 152.612 95.5879 152.844 95.4943C153.077 95.4007 153.325 95.3546 153.576 95.3587L153.576 95.3587H153.584H183.045V95.3588L183.053 95.3586C183.301 95.3545 183.547 95.402 183.775 95.4981C184.004 95.5942 184.21 95.7368 184.38 95.9168L184.386 95.9238L184.393 95.9305C184.572 96.106 184.714 96.3161 184.809 96.5479C184.905 96.7798 184.952 97.0286 184.949 97.2794L184.948 97.2794V97.2866V99.687C184.948 100.192 184.748 100.676 184.391 101.033C184.034 101.39 183.55 101.59 183.045 101.59H160.788H160.288V102.09V111.084V111.584H160.788H178.904C179.407 111.591 179.888 111.795 180.243 112.153C180.598 112.511 180.798 112.994 180.801 113.498V115.925C180.801 116.429 180.601 116.913 180.245 117.27C179.888 117.627 179.405 117.827 178.9 117.828H160.782H160.282V118.328V129.059H160.282L160.282 129.073C160.289 129.329 160.243 129.583 160.148 129.821C160.053 130.058 159.91 130.274 159.728 130.454L159.728 130.454L159.72 130.462C159.549 130.639 159.344 130.779 159.118 130.874C158.891 130.969 158.647 131.017 158.402 131.015H158.397L153.596 131.015L153.592 131.015C153.337 131.017 153.084 130.968 152.848 130.871C152.612 130.774 152.397 130.632 152.217 130.451C152.036 130.271 151.894 130.056 151.797 129.82C151.7 129.584 151.651 129.331 151.653 129.075V129.072V129.05V97.2347Z" fill="#00C9FF" stroke="#00C9FF"/>
    <path d="M190.114 129.164L190.114 129.164V129.151V97.288C190.118 96.7778 190.322 96.2895 190.682 95.9285C191.043 95.5675 191.531 95.3628 192.041 95.3585H196.794V95.3585L196.799 95.3585C197.053 95.3559 197.305 95.4039 197.541 95.4996C197.776 95.5954 197.99 95.7369 198.171 95.9161C198.351 96.0954 198.494 96.3086 198.591 96.5435C198.688 96.7784 198.738 97.0302 198.737 97.2845V97.2864L198.737 129.102L198.737 129.109C198.741 129.357 198.692 129.603 198.594 129.831C198.496 130.059 198.351 130.264 198.168 130.432L198.16 130.439L198.153 130.447C197.974 130.626 197.762 130.768 197.528 130.863C197.294 130.958 197.044 131.006 196.791 131.002L196.791 131.002H196.785L192.03 131.002L192.022 131.002C191.516 131.01 191.028 130.817 190.664 130.465L190.664 130.465L190.657 130.458C190.48 130.293 190.34 130.093 190.246 129.87C190.152 129.647 190.107 129.406 190.114 129.164Z" fill="#00C9FF" stroke="#00C9FF"/>
    <path d="M222.947 106.477L229.946 97.5959C229.946 97.5959 229.946 97.5958 229.946 97.5958C231.133 96.0906 232.49 95.3756 234.027 95.3584H239.521C239.932 95.3584 240.147 95.4462 240.254 95.5358C240.342 95.6094 240.422 95.7391 240.426 96.0151C240.395 96.3632 240.253 96.6921 240.019 96.9527L240.009 96.9643L239.999 96.9765L227.86 112.359L227.616 112.668L227.859 112.977L240.737 129.41L240.737 129.41L240.742 129.416C241.093 129.851 241.168 130.089 241.168 130.174V130.191L241.169 130.208C241.178 130.33 241.157 130.453 241.108 130.566L241.104 130.576L241.1 130.586C241.047 130.725 240.967 130.816 240.852 130.88C240.727 130.95 240.532 131.002 240.239 131.002H234.794C233.276 131.002 231.928 130.299 230.74 128.792C230.74 128.792 230.74 128.792 230.74 128.792L222.947 118.853L222.554 118.351L222.16 118.853L214.367 128.793L214.367 128.793C213.18 130.308 211.833 131.014 210.314 131.014H204.872C204.516 131.014 204.309 130.934 204.188 130.837C204.081 130.751 203.987 130.608 203.943 130.351C203.979 130.016 204.12 129.7 204.346 129.448L204.357 129.436L204.367 129.423L217.249 112.989L217.491 112.68L217.248 112.371L205.112 96.9888L205.099 96.9732L205.086 96.9585C204.85 96.7039 204.707 96.3766 204.682 96.0305C204.685 95.7504 204.765 95.6205 204.852 95.5474C204.958 95.4585 205.173 95.3706 205.586 95.3706H211.083C212.602 95.3706 213.958 96.0818 215.162 97.6081L215.162 97.6083L222.161 106.477L222.554 106.974L222.947 106.477Z" fill="#00C9FF" stroke="#00C9FF"/>
</svg>
