<svg xmlns="http://www.w3.org/2000/svg" viewBox="0 0 1123.25 615.37">
    <defs>
        <style>.cls-1{fill:#00c9ff;}.cls-2{fill:#00c9ff;}</style>
    </defs>
    <g id="Layer_2" data-name="Layer 2">
        <g id="Layer_1-2" data-name="Layer 1">
            <path class="cls-1" d="M592.66,315.12c-22.37,0-48.43-7-76.72-27.56-49.68-36.17-66.72-101.39-39.58-151.73A20.11,20.11,0,0,1,511.74,155c-17.66,32.65-5.68,75.72,27.83,100.09,29,21.08,56.13,25.38,82.9,13.13,23.19-10.59,38.86-30.5,43.12-36.35,19.22-26.45,25.28-56.71,17.54-87.56-7.49-29.81-27.3-57.67-55.76-78.35-35-25.44-78.55-32.5-116.57-18.91A20.1,20.1,0,0,1,497.26,9.14c50.53-18.07,108-9,153.76,24.24,36.07,26.22,61.32,62.12,71.1,101.1,10.58,42.15,2,85.17-24,121-7.31,10.07-27.7,35-58.91,49.29A111.67,111.67,0,0,1,592.66,315.12Z"/>
            <path class="cls-1" d="M564.05,370a171.56,171.56,0,0,1-100.66-33.37c-36.07-26.22-61.32-62.13-71.1-101.1-10.59-42.16-2.06-85.17,24-121,7.32-10.07,27.71-35,58.91-49.29,27.89-12.78,71.93-20.13,123.27,17.19,49.75,36.16,66.72,101.38,39.58,151.72A20.12,20.12,0,0,1,602.66,215c17.66-32.65,5.68-75.72-27.84-100.09-29-21.09-56.13-25.38-82.9-13.14-23.18,10.6-38.85,30.52-43.1,36.37C405.69,197.48,435.4,266.53,487,304.06c35,25.42,78.57,32.49,116.59,18.91a20.1,20.1,0,0,1,13.54,37.86A157.77,157.77,0,0,1,564.05,370Z"/>
            <path class="cls-2" d="M176.23,610.08c0,3.47-2,5.21-6.17,5.22h-27.2a19.52,19.52,0,0,1-9.94-3.26,25.11,25.11,0,0,1-8.3-7.91L103.71,571q-7.5-12.12-15.09-18.24a28.24,28.24,0,0,0-18.28-6.12H44.79v57.69a10.42,10.42,0,0,1-3.27,7.78,11,11,0,0,1-7.91,3.15H11.29a10.83,10.83,0,0,1-8-3.38,11.05,11.05,0,0,1-3.32-8V456.23a11.38,11.38,0,0,1,3.34-8.05A10.63,10.63,0,0,1,7,445.63a10.47,10.47,0,0,1,4.34-.88H33.63a10.53,10.53,0,0,1,4.32.87,10.73,10.73,0,0,1,3.59,2.56,11.49,11.49,0,0,1,3.26,8.08v56.91H70.35a30.48,30.48,0,0,0,18.34-5.68q7.92-5.69,15-18.45l18.45-32.79q6.28-11.37,17-11.52h27.37q5.68,0,5.68,5a14.66,14.66,0,0,1-2,6.53l-25.78,46.68A69.06,69.06,0,0,1,132,519.8a39,39,0,0,1-18.13,9.38q7.86,1.68,16.1,9.94a110.16,110.16,0,0,1,14.56,17.81l29.68,47.27A12.28,12.28,0,0,1,176.23,610.08Z"/>
            <path class="cls-2" d="M193.34,604.33V456.49a11.07,11.07,0,0,1,.81-4.44A11.2,11.2,0,0,1,204.61,445H227a10.66,10.66,0,0,1,7.9,3.34,11.3,11.3,0,0,1,3.26,8.19v125.2H341.58a10.64,10.64,0,0,1,7.89,3.32,10.87,10.87,0,0,1,2.45,3.65,11,11,0,0,1,.82,4.31v11.16a11.41,11.41,0,0,1-.84,4.28,11.06,11.06,0,0,1-2.42,3.62,11.36,11.36,0,0,1-3.62,2.43,11.22,11.22,0,0,1-4.28.84h-137a11.18,11.18,0,0,1-8-3.15,10.27,10.27,0,0,1-3.31-7.82Z"/>
            <path class="cls-2" d="M372.11,604.33V456.25a11.35,11.35,0,0,1,11.27-11.36h22.11a11.27,11.27,0,0,1,11.35,11.36V604.13a10.56,10.56,0,0,1-3.39,7.91,11.1,11.1,0,0,1-8,3.26h-22.1a11.2,11.2,0,0,1-8-3.15,10.26,10.26,0,0,1-2.48-3.56A10.37,10.37,0,0,1,372.11,604.33Z"/>
            <path class="cls-2" d="M451,603.9V456.49a11.3,11.3,0,0,1,.78-4.42,11.15,11.15,0,0,1,2.43-3.77,10.35,10.35,0,0,1,3.57-2.5A10.48,10.48,0,0,1,462,445h48.35a13.87,13.87,0,0,1,8.77,3.34,16,16,0,0,1,5.59,7.95l35,101.45,35-101.45a16.14,16.14,0,0,1,5.58-7.95,13.93,13.93,0,0,1,8.79-3.34h48.35a10.3,10.3,0,0,1,7.78,3.34,11.45,11.45,0,0,1,3.15,8.19V603.9A11.12,11.12,0,0,1,665.2,612a10.83,10.83,0,0,1-7.89,3.26H635.92a10.71,10.71,0,0,1-4.29-.82A10.86,10.86,0,0,1,628,612a11.06,11.06,0,0,1-3.26-8.14V487.84L582.83,604.61a17,17,0,0,1-5.84,7.54,14.13,14.13,0,0,1-8.77,3.15h-17a14.22,14.22,0,0,1-8.75-3.15,18,18,0,0,1-5.86-7.54L494.76,487.84V603.9a11.27,11.27,0,0,1-6.88,10.59,10.7,10.7,0,0,1-4.29.81H462.27a11.21,11.21,0,0,1-4.36-.84,11.35,11.35,0,0,1-3.7-2.46,11.23,11.23,0,0,1-3.3-8Z"/>
            <path class="cls-2" d="M702.55,603.9V456a10.48,10.48,0,0,1,.84-4.28,10.35,10.35,0,0,1,2.5-3.57,11,11,0,0,1,3.66-2.41,11.09,11.09,0,0,1,4.3-.8H850.79a10.74,10.74,0,0,1,4.3.84,10.6,10.6,0,0,1,3.61,2.5,11,11,0,0,1,3.26,7.95v11.17a11.16,11.16,0,0,1-11.17,11.17H747.34v41.8h84.22a10.73,10.73,0,0,1,4.29.84,10.61,10.61,0,0,1,3.6,2.5,11.11,11.11,0,0,1,2.44,3.58,10.74,10.74,0,0,1,.82,4.26v11.35a11,11,0,0,1-.84,4.27,11.11,11.11,0,0,1-2.42,3.63,11.2,11.2,0,0,1-7.89,3.26H747.34V604a11.27,11.27,0,0,1-.8,4.41,11,11,0,0,1-2.47,3.73,10.73,10.73,0,0,1-7.91,3.26H713.85a11.28,11.28,0,0,1-8.06-3.3,11.23,11.23,0,0,1-3.3-8.05Z"/>
            <path class="cls-2" d="M881.32,604.33V456.25a11.35,11.35,0,0,1,11.28-11.36h22.07a11.23,11.23,0,0,1,8.05,3.3,11.28,11.28,0,0,1,3.3,8.06V604.13a10.38,10.38,0,0,1-.85,4.32,10.54,10.54,0,0,1-2.54,3.59,11.1,11.1,0,0,1-8,3.26H892.52a11.2,11.2,0,0,1-8-3.15,10.3,10.3,0,0,1-3.24-7.82Z"/>
            <path class="cls-2" d="M952.24,615.3c-4,0-6.17-1.79-6.64-5.33a9.88,9.88,0,0,1,2.47-5.84L1008,527.76l-56.37-71.51a9.35,9.35,0,0,1-2.5-5.81q0-5.46,6.53-5.48h25.55q11.88,0,20.78,11.36l32.55,41.33L1067,456.32q8.81-11.16,20.78-11.36h25.55q6.54,0,6.55,5.48a9.9,9.9,0,0,1-2.5,5.81l-56.54,71.51,59.86,76.37c1.66,2.07,2.5,3.73,2.5,5a5.89,5.89,0,0,1-.47,2.72c-.87,2.3-2.94,3.45-6.17,3.45h-25.31q-11.86,0-20.67-11.17l-36.23-46.2-36.23,46.2q-8.77,11.19-20.66,11.17Z"/>
        </g>
    </g>
</svg>
