<svg width="156" height="38" viewBox="0 0 156 38" fill="none" xmlns="http://www.w3.org/2000/svg">
    <path d="M20.5838 32.3899C18.3345 32.3899 15.7143 31.6863 12.8699 29.6198C7.86764 25.9833 6.16211 19.4255 8.89087 14.3647C9.01701 14.1311 9.18794 13.9246 9.39387 13.757C9.5998 13.5894 9.83677 13.4641 10.0912 13.3881C10.3455 13.3121 10.6123 13.2869 10.8764 13.3141C11.1406 13.3412 11.3968 13.4201 11.6304 13.5462C11.864 13.6723 12.0705 13.8433 12.238 14.0492C12.4056 14.2551 12.531 14.492 12.607 14.7464C12.683 15.0008 12.7081 15.2677 12.681 15.5318C12.6538 15.7959 12.575 16.0521 12.4488 16.2857C10.6734 19.5682 11.878 23.8997 15.2475 26.3501C18.1647 28.4695 20.892 28.9019 23.5837 27.6703C25.9128 26.6042 27.4898 24.6033 27.9166 24.0153C32.2538 18.0482 29.2667 11.1079 24.0761 7.33444C20.5581 4.77694 16.1766 4.06763 12.3546 5.43343C11.8499 5.61398 11.2941 5.58661 10.8095 5.35737C10.325 5.12813 9.95128 4.71581 9.77073 4.21107C9.59018 3.70632 9.61759 3.15052 9.84683 2.66595C10.0761 2.18137 10.4884 1.80772 10.9931 1.62717C16.0738 -0.18963 21.8525 0.720884 26.4523 4.06333C30.0788 6.69932 32.6177 10.3101 33.601 14.2291C34.6643 18.4664 33.808 22.7922 31.1863 26.3915C30.4513 27.4034 28.4018 29.9124 25.2649 31.3467C23.7979 32.0277 22.2011 32.3835 20.5838 32.3899Z" fill="white"/>
    <path d="M17.7139 37.9032C14.071 37.8802 10.5288 36.7058 7.59374 34.5479C3.96728 31.9119 1.42836 28.3011 0.445034 24.3821C-0.618212 20.1448 0.238082 15.8191 2.85981 12.2197C3.5948 11.2079 5.64419 8.70031 8.78112 7.26457C11.5855 5.98011 16.0127 5.24081 21.1748 8.99143C26.1699 12.6279 27.8825 19.1858 25.1537 24.2465C25.0276 24.4801 24.8567 24.6864 24.6508 24.8539C24.4449 25.0214 24.208 25.1467 23.9537 25.2226C23.6994 25.2986 23.4326 25.3237 23.1686 25.2965C22.9045 25.2693 22.6485 25.1904 22.415 25.0643C22.1815 24.9382 21.9751 24.7673 21.8076 24.5614C21.6401 24.3555 21.5148 24.1186 21.4389 23.8643C21.3629 23.61 21.3378 23.3432 21.365 23.0792C21.3922 22.8152 21.4711 22.5591 21.5972 22.3256C23.3726 19.0431 22.1681 14.7116 18.7985 12.2625C15.8814 10.1418 13.154 9.70932 10.4624 10.941C8.13322 12.0071 6.55621 14.008 6.12949 14.5974C1.79373 20.563 4.77937 27.5048 9.97144 31.2768C13.488 33.8343 17.8694 34.545 21.6914 33.1778C21.9413 33.0884 22.2064 33.0491 22.4715 33.0621C22.7366 33.0752 22.9966 33.1403 23.2365 33.2538C23.4764 33.3674 23.6917 33.527 23.8699 33.7237C24.0481 33.9204 24.1859 34.1503 24.2753 34.4002C24.3647 34.6501 24.404 34.9152 24.3909 35.1803C24.3779 35.4454 24.3127 35.7053 24.1992 35.9453C24.0857 36.1852 23.9261 36.4005 23.7294 36.5787C23.5327 36.7569 23.3028 36.8947 23.0529 36.9841C21.3392 37.5948 19.5331 37.9057 17.7139 37.9032Z" fill="white"/>
    <path d="M60.7802 27.7929C60.7802 28.1431 60.5732 28.3182 60.1594 28.3182H57.4249C57.0682 28.302 56.7227 28.1885 56.4259 27.9899C56.0904 27.7924 55.8048 27.5204 55.591 27.195L53.4888 23.8625C52.9864 23.0499 52.4807 22.4391 51.9717 22.03C51.4501 21.6156 50.7994 21.3979 50.1335 21.4149H47.5645V27.2192C47.5675 27.3653 47.5398 27.5103 47.4833 27.645C47.4267 27.7797 47.3426 27.9011 47.2363 28.0013C47.1315 28.1043 47.0072 28.1854 46.8707 28.2398C46.7342 28.2942 46.5883 28.3209 46.4414 28.3182H44.1965C44.0467 28.3195 43.8983 28.2899 43.7605 28.2312C43.6227 28.1725 43.4985 28.086 43.3958 27.977C43.2887 27.8723 43.204 27.7471 43.1466 27.6087C43.0892 27.4704 43.0603 27.3219 43.0618 27.1721V12.3295C43.0611 12.1788 43.0903 12.0294 43.1476 11.8901C43.2049 11.7507 43.2893 11.624 43.3958 11.5174C43.4977 11.4072 43.6216 11.3195 43.7595 11.26C43.8974 11.2005 44.0463 11.1706 44.1965 11.172H46.4414C46.5908 11.17 46.7389 11.1998 46.876 11.2593C47.013 11.3188 47.1358 11.4068 47.2363 11.5174C47.3418 11.6245 47.4251 11.7514 47.4814 11.8907C47.5377 12.0301 47.566 12.1792 47.5645 12.3295V18.0496H50.1335C50.7936 18.063 51.4404 17.8628 51.9774 17.4787C52.5083 17.0982 53.0121 16.4797 53.4888 15.6234L55.3441 12.3266C55.7647 11.5655 56.3379 11.1797 57.0638 11.1692H59.8226C60.2032 11.1692 60.3934 11.3362 60.3934 11.6701C60.3789 11.9019 60.3095 12.127 60.1908 12.3266L57.599 17.0206C57.2685 17.6471 56.8434 18.219 56.3388 18.7161C55.8262 19.1874 55.197 19.5131 54.5163 19.6595C55.0425 19.7708 55.5824 20.1014 56.1362 20.6513C56.6848 21.1958 57.1751 21.7961 57.599 22.4425L60.5833 27.195C60.7002 27.3736 60.7681 27.5798 60.7802 27.7929Z" fill="white"/>
    <path d="M62.5003 27.2193V12.351C62.4968 12.1996 62.5241 12.049 62.5805 11.9085C62.6369 11.7679 62.7213 11.6402 62.8285 11.5332C62.9322 11.4258 63.0566 11.3407 63.1943 11.283C63.332 11.2254 63.4799 11.1964 63.6291 11.1978H65.8741C66.0247 11.1941 66.1745 11.222 66.3136 11.2798C66.4528 11.3376 66.5782 11.4239 66.6819 11.5332C66.7887 11.6417 66.8728 11.7704 66.9292 11.9118C66.9856 12.0532 67.0131 12.2045 67.0101 12.3567V24.9444H77.4114C77.5596 24.942 77.7067 24.9705 77.8433 25.028C77.9799 25.0855 78.1031 25.1708 78.205 25.2784C78.311 25.3828 78.3949 25.5075 78.4515 25.645C78.5082 25.7826 78.5364 25.9302 78.5346 26.079V27.2008C78.5346 27.4987 78.4163 27.7844 78.2056 27.995C77.995 28.2056 77.7093 28.324 77.4114 28.324H63.642C63.3437 28.3284 63.0558 28.2145 62.8413 28.0071C62.7315 27.9078 62.6442 27.7861 62.5854 27.6502C62.5265 27.5143 62.4976 27.3674 62.5003 27.2193Z" fill="white"/>
    <path d="M80.474 27.2193V12.3268C80.4758 12.0267 80.5958 11.7394 80.8078 11.527C81.0199 11.3147 81.307 11.1944 81.6071 11.1922H83.8292C83.9789 11.191 84.1273 11.2195 84.2659 11.2761C84.4044 11.3326 84.5304 11.416 84.6365 11.5215C84.7427 11.627 84.8269 11.7525 84.8843 11.8907C84.9417 12.0289 84.9711 12.1771 84.971 12.3268V27.1951C84.9732 27.3441 84.9439 27.4919 84.8852 27.6289C84.8264 27.7659 84.7394 27.8889 84.6298 27.99C84.5243 28.0956 84.3988 28.179 84.2606 28.2354C84.1223 28.2918 83.9742 28.32 83.825 28.3183H81.6028C81.3045 28.3228 81.0166 28.2088 80.8022 28.0014C80.6953 27.9016 80.6108 27.7804 80.5542 27.6456C80.4977 27.5108 80.4703 27.3655 80.474 27.2193Z" fill="white"/>
    <path d="M88.4017 27.1719V12.3507C88.398 12.1988 88.4246 12.0478 88.48 11.9064C88.5354 11.765 88.6185 11.6361 88.7243 11.5272C88.8252 11.4193 88.9475 11.3338 89.0834 11.276C89.2193 11.2183 89.3658 11.1896 89.5135 11.1918H94.3687C94.6928 11.1973 95.0049 11.316 95.2508 11.5272C95.5159 11.7295 95.7122 12.0085 95.813 12.3264L99.3367 22.525L102.859 12.3264C102.96 12.0089 103.156 11.7299 103.42 11.5272C103.667 11.3161 103.98 11.1975 104.305 11.1918H109.164C109.311 11.1893 109.456 11.2178 109.591 11.2756C109.726 11.3334 109.847 11.4192 109.946 11.5272C110.051 11.6368 110.133 11.766 110.187 11.9073C110.241 12.0487 110.267 12.1993 110.263 12.3507V27.1719C110.267 27.3234 110.24 27.474 110.183 27.6146C110.127 27.7552 110.042 27.8828 109.935 27.9897C109.832 28.0956 109.709 28.1793 109.572 28.2358C109.436 28.2922 109.289 28.3202 109.141 28.3179H106.991C106.843 28.32 106.696 28.292 106.559 28.2356C106.423 28.1792 106.299 28.0955 106.196 27.9897C106.089 27.8826 106.004 27.755 105.948 27.6144C105.891 27.4738 105.864 27.3233 105.867 27.1719V15.5033L101.653 27.2433C101.534 27.5464 101.331 27.8092 101.068 28.0011C100.817 28.2024 100.506 28.3139 100.184 28.3179H98.4719C98.1519 28.3145 97.8425 28.2028 97.5942 28.0011C97.3324 27.8065 97.1282 27.5446 97.0033 27.2433L92.7988 15.5033V27.1719C92.8026 27.3234 92.7754 27.474 92.719 27.6146C92.6625 27.7552 92.578 27.8828 92.4706 27.9897C92.3677 28.0956 92.2442 28.1793 92.1078 28.2358C91.9713 28.2922 91.8248 28.3202 91.6771 28.3179H89.5278C89.3775 28.3191 89.2285 28.2903 89.0895 28.2333C88.9505 28.1763 88.8241 28.0923 88.7179 27.986C88.6116 27.8798 88.5276 27.7535 88.4706 27.6144C88.4136 27.4754 88.3849 27.3264 88.386 27.1762L88.4017 27.1719Z" fill="white"/>
    <path d="M113.696 27.1723V12.304C113.693 12.1563 113.722 12.0098 113.78 11.8739C113.837 11.738 113.923 11.6156 114.031 11.5148C114.136 11.4106 114.261 11.3284 114.399 11.273C114.536 11.2176 114.683 11.1902 114.832 11.1922H128.6C128.748 11.1902 128.895 11.2189 129.032 11.2766C129.169 11.3344 129.292 11.4198 129.394 11.5276C129.5 11.6317 129.584 11.7562 129.641 11.8936C129.697 12.0309 129.725 12.1784 129.723 12.3268V13.45C129.723 13.5975 129.694 13.7436 129.638 13.8798C129.581 14.0161 129.498 14.1399 129.394 14.2442C129.29 14.3484 129.166 14.431 129.029 14.4872C128.893 14.5434 128.747 14.5722 128.6 14.5718H118.203V18.7762H126.67C126.818 18.7739 126.965 18.8023 127.102 18.8598C127.238 18.9173 127.362 19.0026 127.464 19.1102C127.569 19.2125 127.652 19.3351 127.708 19.4705C127.765 19.6059 127.793 19.7513 127.792 19.898V21.0326C127.792 21.1801 127.763 21.3262 127.707 21.4626C127.651 21.5989 127.568 21.7228 127.464 21.8272C127.36 21.9315 127.236 22.0143 127.1 22.0707C126.964 22.1271 126.817 22.156 126.67 22.1558H118.203V27.1723C118.207 27.3238 118.18 27.4746 118.123 27.6152C118.067 27.7559 117.982 27.8835 117.874 27.9901C117.771 28.0962 117.647 28.18 117.511 28.2365C117.374 28.2929 117.227 28.3208 117.079 28.3184H114.836C114.686 28.3195 114.537 28.2907 114.398 28.2338C114.259 28.1768 114.132 28.0927 114.026 27.9865C113.92 27.8802 113.836 27.7539 113.779 27.6149C113.722 27.4758 113.693 27.3269 113.694 27.1766L113.696 27.1723Z" fill="white"/>
    <path d="M131.67 27.2193V12.3268C131.671 12.0252 131.793 11.7366 132.007 11.5241C132.22 11.3115 132.51 11.1922 132.811 11.1922H135.032C135.182 11.191 135.33 11.2195 135.469 11.2761C135.607 11.3326 135.733 11.416 135.839 11.5215C135.946 11.627 136.03 11.7525 136.087 11.8907C136.145 12.0289 136.174 12.1771 136.174 12.3268V27.1951C136.176 27.3441 136.146 27.4918 136.088 27.6287C136.029 27.7656 135.942 27.8887 135.833 27.99C135.727 28.0955 135.601 28.1789 135.462 28.2352C135.324 28.2916 135.176 28.3198 135.026 28.3183H132.806C132.507 28.3228 132.219 28.2088 132.005 28.0014C131.897 27.9022 131.811 27.7812 131.753 27.6464C131.695 27.5116 131.667 27.366 131.67 27.2193Z" fill="white"/>
    <path d="M138.799 28.3183C138.402 28.3183 138.179 28.1389 138.132 27.7802C138.148 27.5629 138.236 27.3571 138.381 27.195L144.4 19.5168L138.728 12.3267C138.58 12.1662 138.491 11.9597 138.477 11.7416C138.477 11.3762 138.695 11.1921 139.133 11.1921H141.702C142.499 11.1921 143.195 11.5703 143.792 12.3267L147.064 16.4827L150.338 12.3267C150.926 11.5789 151.622 11.2007 152.426 11.1921H154.995C155.433 11.1921 155.653 11.3762 155.653 11.7416C155.636 11.959 155.548 12.1647 155.402 12.3267L149.729 19.5168L155.747 27.195C155.882 27.332 155.97 27.5077 155.998 27.6974C156.005 27.7912 155.989 27.8851 155.951 27.9714C155.864 28.2026 155.656 28.3183 155.33 28.3183H152.787C151.991 28.3183 151.298 27.9438 150.708 27.195L147.066 22.5496L143.424 27.195C142.836 27.9448 142.143 28.3192 141.346 28.3183H138.799Z" fill="white"/>
</svg>
