<svg width="21" height="21" viewBox="0 0 21 21" fill="none" xmlns="http://www.w3.org/2000/svg">
    <path d="M20.7865 4.56899V17.217C20.7865 18.1637 20.4115 19.0716 19.744 19.741C19.0765 20.4104 18.1712 20.7865 17.2272 20.7865H4.59158C4.27847 20.7868 3.9684 20.7249 3.67925 20.6044C3.3901 20.4839 3.12757 20.3072 2.90682 20.0845L0.700054 17.8714C0.476567 17.6486 0.29956 17.3834 0.179375 17.0913C0.0591894 16.7992 -0.00178056 16.4859 3.95824e-05 16.1699V3.56952C3.95824e-05 2.62283 0.375036 1.7149 1.04254 1.04549C1.71004 0.376074 2.61537 7.47147e-07 3.55937 7.47147e-07H16.1713C16.4844 -0.000248072 16.7944 0.0616528 17.0836 0.182137C17.3727 0.302621 17.6353 0.479306 17.856 0.702007L20.0628 2.91511C20.5114 3.3496 20.7714 3.94374 20.7865 4.56899Z" fill="#3CBFF0"/>
    <path d="M14.6161 9.88951H15.7976C15.7976 6.8589 13.5096 4.57324 10.4749 4.57324V5.75477C12.8745 5.75477 14.6161 7.49338 14.6161 9.88951Z" fill="#003370"/>
    <path d="M10.4808 8.11778C11.7232 8.11778 12.2531 8.64769 12.2531 9.89006H13.4346C13.4346 7.98485 12.386 6.93625 10.4808 6.93625V8.11778ZM12.5024 11.3333C12.3889 11.2301 12.2397 11.1751 12.0864 11.1798C11.933 11.1846 11.7876 11.2487 11.6806 11.3587L10.2669 12.8126C9.92665 12.7476 9.24255 12.5343 8.53836 11.8319C7.83417 11.1271 7.62091 10.4412 7.5577 10.1033L9.01038 8.68904C9.12051 8.58219 9.18474 8.43668 9.18948 8.28331C9.19422 8.12994 9.1391 7.98074 9.03578 7.86729L6.85292 5.46703C6.74956 5.35322 6.60591 5.28419 6.45247 5.27459C6.29903 5.26499 6.1479 5.31559 6.03117 5.41563L4.74921 6.51504C4.64708 6.61754 4.58611 6.75397 4.57789 6.89844C4.56903 7.04613 4.40007 10.5446 7.11285 13.2586C9.47945 15.6246 12.4439 15.7977 13.2603 15.7977C13.3797 15.7977 13.4529 15.7941 13.4724 15.793C13.6169 15.7849 13.7532 15.7236 13.8552 15.621L14.954 14.3385C15.0542 14.2218 15.1048 14.0708 15.0954 13.9173C15.0859 13.7639 15.017 13.6202 14.9032 13.5168L12.5024 11.3333Z" fill="#003370"/>
</svg>
