<svg width="21" height="21" viewBox="0 0 21 21" fill="none" xmlns="http://www.w3.org/2000/svg">
    <path d="M20.7865 4.56899V17.217C20.7865 18.1637 20.4115 19.0716 19.744 19.741C19.0765 20.4104 18.1712 20.7865 17.2272 20.7865H4.59158C4.27847 20.7868 3.9684 20.7249 3.67925 20.6044C3.3901 20.4839 3.12757 20.3072 2.90682 20.0845L0.700054 17.8714C0.476567 17.6486 0.29956 17.3834 0.179375 17.0913C0.0591894 16.7992 -0.00178056 16.4859 3.95824e-05 16.1699V3.56952C3.95824e-05 2.62283 0.375036 1.7149 1.04254 1.04549C1.71004 0.376074 2.61537 7.47147e-07 3.55937 7.47147e-07H16.1713C16.4844 -0.000248072 16.7944 0.0616528 17.0836 0.182137C17.3727 0.302621 17.6353 0.479306 17.856 0.702007L20.0628 2.91511C20.5114 3.3496 20.7714 3.94374 20.7865 4.56899Z" fill="#3CBFF0"/>
    <g clip-path="url(#clip0_1960_140)">
        <path d="M10.4961 4C9.0374 4 7.63846 4.55995 6.60701 5.55667C5.57556 6.55339 4.99609 7.90523 4.99609 9.3148C4.99609 12.2506 10.4961 17 10.4961 17C10.4961 17 15.9961 12.2506 15.9961 9.3148C15.9958 7.90531 15.4163 6.55361 14.3849 5.55695C13.3535 4.56028 11.9547 4.00025 10.4961 4ZM10.4961 11.9722C9.92038 11.9722 9.3576 11.8072 8.87891 11.4982C8.40023 11.1891 8.02715 10.7498 7.80684 10.2358C7.58652 9.72183 7.52888 9.15626 7.64119 8.61063C7.75351 8.065 8.03074 7.5638 8.43782 7.17042C8.84491 6.77704 9.36357 6.50914 9.92822 6.40061C10.4929 6.29208 11.0781 6.34778 11.61 6.56067C12.1419 6.77357 12.5965 7.1341 12.9164 7.59666C13.2362 8.05923 13.4069 8.60306 13.4069 9.15938C13.4069 9.90539 13.1003 10.6208 12.5544 11.1483C12.0085 11.6759 11.2681 11.9722 10.4961 11.9722Z" fill="#003370"/>
    </g>
    <defs>
        <clipPath id="clip0_1960_140">
            <rect width="11" height="13" fill="white" transform="translate(5 4)"/>
        </clipPath>
    </defs>
</svg>
