<svg width="36" height="53" viewBox="0 0 36 53" fill="none" xmlns="http://www.w3.org/2000/svg">
    <g clip-path="url(#clip0_1961_2259)">
        <path d="M35.4073 17.7119C35.4073 27.4777 17.7119 52.2343 17.7119 52.2343C17.7119 52.2343 0 27.4777 0 17.7119C0 13.0144 1.86619 8.50934 5.18781 5.18771C8.50944 1.86608 13.0144 0 17.7119 0C22.4065 0.00442469 26.9073 1.87245 30.2254 5.1936C33.5434 8.51475 35.4073 13.0173 35.4073 17.7119Z" fill="#003370"/>
        <path d="M20.2995 28.0787C18.3199 28.0296 16.4099 27.3382 14.8574 26.1089C13.1771 24.9601 11.9681 23.2433 11.4529 21.2742C10.9376 19.3051 11.1508 17.2161 12.053 15.3916C12.1238 15.2435 12.2253 15.1122 12.3509 15.0066C12.4766 14.901 12.6234 14.8234 12.7815 14.7792C12.9396 14.7349 13.1053 14.7249 13.2675 14.7499C13.4298 14.775 13.5849 14.8343 13.7224 14.9242C13.8586 14.9961 13.9794 15.0943 14.0775 15.2131C14.1757 15.3319 14.2494 15.469 14.2944 15.6164C14.3394 15.7638 14.3547 15.9186 14.3396 16.072C14.3245 16.2254 14.2792 16.3742 14.2063 16.51C13.5746 17.8332 13.4413 19.3399 13.8308 20.7534C14.2202 22.167 15.1063 23.3928 16.3265 24.2058C17.1864 24.9517 18.2385 25.4412 19.363 25.6183C20.4875 25.7953 21.6393 25.653 22.6868 25.2074C23.9982 24.5605 25.1412 23.6175 26.0255 22.453C26.7338 21.511 27.2202 20.4213 27.4485 19.2651C27.6769 18.1089 27.6411 16.916 27.3442 15.7755C26.6736 13.3846 25.1922 11.3013 23.1541 9.88268C21.9149 8.94604 20.4653 8.32703 18.9318 8.07969C17.3982 7.83235 15.8276 7.9642 14.3567 8.46374C14.0622 8.56563 13.7392 8.54742 13.4581 8.41307C13.1769 8.27872 12.96 8.03904 12.8543 7.7459C12.7524 7.45139 12.7704 7.1286 12.9048 6.84741C13.0391 6.56622 13.2788 6.34926 13.572 6.24348C15.3982 5.61026 17.3514 5.43133 19.2623 5.72219C21.1732 6.01305 22.9846 6.76494 24.5398 7.91284C26.9969 9.66863 28.7672 12.2239 29.5479 15.1412C29.9279 16.608 29.9751 18.1413 29.6862 19.6288C29.3974 21.1162 28.7799 22.5203 27.8785 23.7384C26.7819 25.2356 25.3383 26.4443 23.6717 27.2607C22.623 27.7822 21.4706 28.0617 20.2995 28.0787Z" fill="#00C9FF"/>
        <path d="M18.2125 32.0351C15.6223 32.0188 13.1039 31.1832 11.0177 29.648C8.55654 27.8962 6.78505 25.3393 6.00957 22.4196C5.63194 20.9526 5.58571 19.4198 5.87447 17.9327C6.16323 16.4457 6.77971 15.0415 7.67893 13.8224C8.76386 12.3208 10.2031 11.1108 11.8688 10.3001C13.2897 9.66202 14.8624 9.43944 16.4046 9.65806C17.9467 9.87668 19.3955 10.5276 20.5831 11.5354C22.2633 12.6841 23.4723 14.401 23.9876 16.3701C24.5029 18.3392 24.2897 20.4282 23.3875 22.2527C23.3142 22.3985 23.2117 22.5276 23.0863 22.6319C22.9608 22.7363 22.8153 22.8136 22.6586 22.8591C22.5018 22.9045 22.3374 22.9171 22.1756 22.8961C22.0138 22.875 21.858 22.8208 21.7181 22.7368C21.574 22.6617 21.4467 22.5582 21.3438 22.4326C21.2408 22.3069 21.1644 22.1617 21.1192 22.0056C21.074 21.8496 21.0607 21.686 21.0805 21.5248C21.1002 21.3635 21.1526 21.2079 21.2341 21.0674C21.8658 19.7442 21.9991 18.2376 21.6097 16.8241C21.2203 15.4105 20.3342 14.1847 19.114 13.3717C18.2543 12.625 17.2011 12.1363 16.0759 11.9621C14.9506 11.7878 13.7989 11.935 12.7537 12.3868C11.4295 13.0137 10.2821 13.9603 9.41493 15.1412C6.07621 19.6318 8.38007 24.8402 12.2697 27.6781C13.5089 28.6147 14.9585 29.2338 16.492 29.4811C18.0255 29.7284 19.5962 29.5966 21.067 29.0971C21.2127 29.0443 21.3675 29.0211 21.5223 29.0287C21.677 29.0363 21.8287 29.0747 21.9686 29.1415C22.1084 29.2083 22.2336 29.3022 22.3368 29.4178C22.44 29.5334 22.519 29.6684 22.5695 29.8149C22.6714 30.1094 22.6533 30.4322 22.519 30.7134C22.3846 30.9946 22.1449 31.2116 21.8518 31.3173C20.687 31.7569 19.457 31.9995 18.2125 32.0351Z" fill="#00C9FF"/>
    </g>
    <defs>
        <clipPath id="clip0_1961_2259">
            <rect width="35.4238" height="52.251" fill="white"/>
        </clipPath>
    </defs>
</svg>
