<svg width="111" height="111" viewBox="0 0 111 111" fill="none" xmlns="http://www.w3.org/2000/svg">
    <path d="M110.879 24.2065V91.2157C110.879 96.2313 108.887 101.041 105.34 104.588C101.794 108.135 96.9835 110.127 91.9679 110.127H24.8327C23.169 110.128 21.5216 109.8 19.9853 109.162C18.449 108.524 17.0541 107.588 15.8812 106.408L4.15628 94.6828C2.96885 93.5025 2.02838 92.0975 1.38982 90.5497C0.751251 89.002 0.427307 87.3426 0.436978 85.6684V18.9113C0.436978 13.8957 2.4294 9.08557 5.97597 5.53901C9.52253 1.99244 14.3327 3.95839e-06 19.3483 3.95839e-06H86.3576C88.0212 -0.00131429 89.6687 0.326637 91.205 0.964963C92.7413 1.60329 94.1361 2.53937 95.3089 3.71924L107.034 15.4443C109.417 17.7462 110.799 20.8939 110.879 24.2065Z" fill="#00C9FF"/>
    <path d="M82.578 58.307V54.5247H77.7872L84.091 48.7252L81.5064 46.0146L72.555 54.5247H64.5492C64.1406 52.781 63.2183 51.2 61.9016 49.986L65.936 42.9888L77.7872 39.5847L76.7155 35.9285L68.6467 38.2609L71.0421 34.1635L67.7642 32.2723L65.3687 36.3698L63.3516 28.2379L59.6953 29.1205L62.6581 41.0976L58.6237 48.0948C57.7684 47.8155 56.8757 47.6667 55.976 47.6536C55.0773 47.6773 54.1863 47.8259 53.3285 48.0948L49.3572 41.0976L52.2568 29.1205L48.6006 28.2379L46.5835 36.3698L44.188 32.2723L40.9731 34.1635L43.3055 38.2609L35.2366 35.9285L34.228 39.5847L46.0792 42.9888L50.1136 49.986C48.7797 51.1964 47.8361 52.7764 47.4029 54.5247H39.3972L30.4458 46.0146L27.8612 48.7252L34.165 54.5247H28.9329V58.307H33.7237L27.4199 64.1064L30.0045 66.8801L39.145 58.307H47.1508C47.5693 60.0613 48.5154 61.6453 49.8615 62.8457L45.827 69.8429L33.9759 73.31L35.2366 77.2183L43.3055 74.8859L40.9731 79.0464L44.188 80.9375L46.5835 76.777L48.6006 84.972L52.2568 84.0264L49.3572 72.0492L53.3285 65.052C54.1863 65.321 55.0773 65.4695 55.976 65.4933C56.8757 65.4801 57.7684 65.3313 58.6237 65.052L62.6581 72.0492L59.6953 84.0264L63.3516 84.972L65.3687 76.777L67.7642 80.9375L71.0421 79.0464L68.6467 74.8859L76.7155 77.2183L77.7872 73.6252L65.936 70.1581L61.9016 63.1609C63.2309 61.957 64.1556 60.3718 64.5492 58.6221H72.555L81.5064 67.1953L84.091 64.4216L77.7872 58.6221L82.578 58.307ZM51.0591 56.4158C51.0715 55.4337 51.3742 54.4771 51.9289 53.6665C52.4836 52.8559 53.2657 52.2274 54.1767 51.8601C55.0877 51.4928 56.0869 51.4032 57.0487 51.6024C58.0106 51.8016 58.8921 52.2808 59.5822 52.9797C60.2724 53.6786 60.7404 54.566 60.9275 55.5303C61.1146 56.4945 61.0124 57.4926 60.6337 58.3989C60.255 59.3052 59.6167 60.0793 58.7992 60.6237C57.9816 61.1682 57.0214 61.4588 56.0391 61.4588C55.3538 61.5024 54.6668 61.4037 54.0214 61.169C53.376 60.9343 52.7862 60.5687 52.289 60.0951C51.7917 59.6215 51.3977 59.0501 51.1318 58.417C50.8659 57.7838 50.7339 57.1025 50.744 56.4158H51.0591Z" fill="#003370"/>
</svg>
