<svg width="70" height="71" viewBox="0 0 70 71" fill="none" xmlns="http://www.w3.org/2000/svg">
<path d="M69.9983 15.3198V57.8388C70.0249 59.4313 69.7342 61.0133 69.143 62.4923C68.5519 63.9713 67.6722 65.3179 66.5552 66.4534C65.4383 67.589 64.1065 68.4908 62.6374 69.1063C61.1684 69.7218 59.5914 70.0387 57.9986 70.0385H15.5197C14.4545 70.0394 13.3998 69.8276 12.4176 69.4154C11.4354 69.0033 10.5454 68.3992 9.79982 67.6385L2.35999 60.1987C1.61134 59.4545 1.01733 58.5695 0.612293 57.5946C0.207259 56.6198 -0.000833947 55.5745 2.51169e-06 54.5188V11.9998C2.51169e-06 8.81733 1.26425 5.76515 3.51463 3.51477C5.76501 1.26438 8.81719 0.000133465 11.9997 0.000133465H54.5187C55.5811 -0.00600287 56.634 0.199517 57.6161 0.604703C58.5981 1.00989 59.4896 1.60662 60.2386 2.36008L67.5184 9.6399C68.2888 10.3741 68.9049 11.2546 69.3307 12.2299C69.7566 13.2052 69.9835 14.2557 69.9983 15.3198Z" fill="#00C9FF"/>
<path fill-rule="evenodd" clip-rule="evenodd" d="M22.9207 21.202C25.2317 18.9219 28.2669 17.5213 31.5013 17.2424C34.7357 16.9635 37.9658 17.8239 40.633 19.6748C43.3001 21.5256 45.2364 24.2505 46.107 27.378C46.9775 30.5055 46.7275 33.8389 45.4002 36.8016L40.3203 31.7617C40.4379 30.6419 40.3011 29.5099 39.9202 28.4502C39.5393 27.3906 38.924 26.4306 38.1203 25.6419C36.659 24.3703 34.7693 23.7013 32.8335 23.7702C30.8976 23.8392 29.0603 24.6408 27.6931 26.0131C26.3259 27.3853 25.5311 29.2257 25.4693 31.1618C25.4076 33.0978 26.0837 34.9851 27.3606 36.4416C27.3606 36.4416 27.7206 36.8016 27.9606 36.9616L27.3206 37.5616L30.2005 40.4415L26.9206 43.6815C25.4357 42.9861 24.0824 42.0388 22.9207 40.8815C20.3121 38.2713 18.8467 34.7321 18.8467 31.0418C18.8467 27.3515 20.3121 23.8122 22.9207 21.202ZM22.6807 48.8013L31.0405 40.4015L28.6406 38.0016L31.3205 35.3217L39.3203 43.3215L36.6404 45.9614L34.2404 43.5615L25.8806 51.9613C25.4406 52.3865 24.8526 52.6242 24.2407 52.6242C23.6287 52.6242 23.0408 52.3865 22.6007 51.9613C22.1755 51.5212 21.9378 50.9332 21.9378 50.3213C21.9378 49.7094 22.1755 49.1214 22.6007 48.6813L22.6807 48.8013ZM30.0005 28.2818C30.6629 27.6486 31.5441 27.2952 32.4605 27.2952C33.3769 27.2952 34.258 27.6486 34.9205 28.2818L47.8801 41.2815C49.4582 44.5517 51.4918 47.5817 53.92 50.2813C54.0507 50.4047 54.1549 50.5535 54.2261 50.7186C54.2973 50.8836 54.334 51.0615 54.334 51.2413C54.334 51.4211 54.2973 51.5989 54.2261 51.764C54.1549 51.9291 54.0507 52.0779 53.92 52.2013C53.7931 52.3331 53.6409 52.438 53.4725 52.5097C53.3041 52.5814 53.123 52.6183 52.94 52.6183C52.757 52.6183 52.5759 52.5814 52.4075 52.5097C52.2391 52.438 52.0869 52.3331 51.96 52.2013C49.2628 49.77 46.2323 47.7362 42.9602 46.1614L30.0005 33.2017C29.3673 32.5393 29.0139 31.6582 29.0139 30.7418C29.0139 29.8254 29.3673 28.9443 30.0005 28.2818ZM32.6405 30.9218C32.7818 30.7791 32.95 30.6658 33.1354 30.5885C33.3208 30.5112 33.5196 30.4714 33.7205 30.4714C33.9213 30.4714 34.1202 30.5112 34.3055 30.5885C34.4909 30.6658 34.6591 30.7791 34.8005 30.9218L41.2403 37.3616C41.383 37.5029 41.4962 37.6712 41.5736 37.8565C41.6509 38.0419 41.6907 38.2407 41.6907 38.4416C41.6907 38.6424 41.6509 38.8413 41.5736 39.0267C41.4962 39.212 41.383 39.3802 41.2403 39.5216C41.0989 39.6643 40.9308 39.7776 40.7454 39.8549C40.56 39.9322 40.3612 39.972 40.1603 39.972C39.9595 39.972 39.7606 39.9322 39.5753 39.8549C39.3899 39.7776 39.2217 39.6643 39.0803 39.5216L32.6405 33.0817C32.4978 32.9404 32.3845 32.7722 32.3072 32.5868C32.2299 32.4014 32.1901 32.2026 32.1901 32.0017C32.1901 31.8009 32.2299 31.602 32.3072 31.4167C32.3845 31.2313 32.4978 31.0631 32.6405 30.9218Z" fill="#003370"/>
</svg>
