<svg width="65" height="65" viewBox="0 0 65 65" fill="none" xmlns="http://www.w3.org/2000/svg">
    <path d="M32.5 65C50.4493 65 65 50.4493 65 32.5C65 14.5507 50.4493 0 32.5 0C14.5507 0 0 14.5507 0 32.5C0 50.4493 14.5507 65 32.5 65Z" fill="#00C9FF"/>
    <path d="M25.8745 42.6941C21.7236 42.4375 19.3684 39.1366 18.8839 37.038C19.4271 37.038 19.9849 37.0649 20.5398 37.0301C21.0785 36.997 21.6143 36.9015 22.1531 36.7862C19.9409 36.1617 18.2433 34.8306 17.1071 32.71C16.4335 31.4523 16.0963 30.0888 16.1205 28.5666C17.1944 29.1501 18.2726 29.5219 19.4681 29.5606C16.1037 26.5021 15.3252 22.8632 17.1665 18.4941C21.3673 23.8304 26.6317 26.6907 32.964 27.1881C32.9384 26.3205 32.8394 25.4931 32.9032 24.6807C33.1407 21.6482 34.5458 19.3791 37.03 17.9746C40.069 16.2566 43.4767 16.8535 45.9623 19.4217C46.1118 19.5765 46.2349 19.6104 46.4424 19.5615C47.9282 19.2141 49.3311 18.6393 50.6608 17.8482C50.7539 17.793 50.8491 17.7432 50.9547 17.6848C50.8184 18.858 49.7694 20.3407 47.7742 22.1637C49.2769 21.9884 50.6307 21.5424 51.9999 21.0086C51.7984 21.3047 51.6034 21.6063 51.3938 21.8953C51.1841 22.185 50.9833 22.489 50.7377 22.74C49.9959 23.498 49.2409 24.2409 48.4757 24.9712C48.3115 25.1275 48.2514 25.2704 48.2543 25.5025C48.332 31.6102 46.5611 37.0278 42.9343 41.7159C39.7413 45.8419 35.6512 48.3904 30.7548 49.3638C25.2126 50.466 19.9739 49.5289 15.1039 46.4135C14.9815 46.3353 14.8649 46.2461 14.6494 46.0945C18.8773 46.5327 22.59 45.4076 25.8745 42.6941Z" fill="white"/>
</svg>
