<svg width="113" height="113" viewBox="0 0 113 113" fill="none" xmlns="http://www.w3.org/2000/svg">
    <path d="M112.39 24.5134V92.5488C112.432 95.0971 111.967 97.6284 111.021 99.995C110.075 102.362 108.667 104.516 106.88 106.333C105.093 108.15 102.962 109.593 100.611 110.578C98.2605 111.563 95.7373 112.07 93.1886 112.07H24.8972C23.1928 112.071 21.5054 111.732 19.9337 111.073C18.362 110.413 16.9379 109.447 15.7448 108.23L3.84023 96.325C2.63072 95.1395 1.66842 93.7257 1.00923 92.1656C0.35004 90.6056 0.00703075 88.9302 0 87.2366V19.2012C0 14.1088 2.02294 9.22492 5.62381 5.62404C9.22469 2.02316 14.1085 0.000213559 19.201 0.000213559H87.2364C88.9362 -0.0096053 90.6211 0.319251 92.1925 0.967596C93.7639 1.61594 95.1904 2.57079 96.3888 3.7764L108.805 15.425C111.155 17.8615 112.443 21.1292 112.39 24.5134Z" fill="#00C9FF"/>
    <path d="M97.1576 80.6464C97.1872 80.743 97.1975 80.8446 97.1878 80.9452C97.178 81.0458 97.1485 81.1435 97.1009 81.2327C97.0534 81.3219 96.9886 81.4009 96.9105 81.465C96.8324 81.5291 96.7424 81.5772 96.6457 81.6065L78.1487 87.6227C78.0521 87.6523 77.9505 87.6626 77.8499 87.6528C77.7493 87.6431 77.6516 87.6136 77.5624 87.5661C77.4732 87.5185 77.3943 87.4538 77.3301 87.3756C77.266 87.2975 77.2179 87.2075 77.1886 87.1107L74.9486 81.3504C74.9486 80.9664 74.9485 80.7104 75.4605 80.3904L81.4768 75.5902L69.1882 41.8605C64.26 28.2918 55.6195 21.1874 45.955 22.6595C43.4696 23.0287 41.1007 23.958 39.0273 25.3773C36.9538 26.7965 35.2301 28.6686 33.9865 30.8519C30.6578 37.0732 29.8335 44.3317 31.6824 51.1409C49.7953 42.0525 74.9486 64.6456 74.9486 74.3741C74.9486 84.1026 55.4276 84.6146 47.9392 84.6146H46.0191L45.5071 84.2306C46.5055 82.9747 47.2411 81.5308 47.6704 79.9849C48.0996 78.439 48.2137 76.8226 48.0057 75.2317C47.7978 73.6408 47.2721 72.108 46.46 70.7243C45.6478 69.3407 44.5658 68.1345 43.2782 67.1773C41.9905 66.2202 40.5236 65.5317 38.9646 65.1528C37.4055 64.7739 35.7863 64.7123 34.203 64.9717C32.6197 65.2311 31.1048 65.8062 29.7482 66.6627C28.3916 67.5193 27.221 68.6399 26.3061 69.9579L24.4501 68.5498C23.7936 66.1141 23.7061 63.5601 24.1944 61.0852C24.6827 58.6103 25.7337 56.2809 27.2661 54.2771C25.888 50.0208 25.3873 45.5291 25.7944 41.0738C26.2014 36.6185 27.5077 32.292 29.6343 28.3558C31.2388 25.5873 33.4479 23.217 36.0966 21.4216C38.7452 19.6262 41.7652 18.4523 44.9311 17.9873C49.4753 17.2192 64.9 16.5152 73.4764 40.0684L85.765 73.9901H93.7015C94.1495 73.9901 94.5335 73.9901 94.6615 74.4381L97.1576 80.6464Z" fill="#003370"/>
    <path d="M45.5727 76.1653C45.5848 77.3533 45.3589 78.5317 44.9082 79.6309C44.4575 80.7302 43.7912 81.728 42.9486 82.5656C41.7074 83.7852 40.1314 84.6079 38.4212 84.929C36.711 85.2501 34.9439 85.0551 33.3448 84.3688C31.7458 83.6825 30.3871 82.536 29.4417 81.0751C28.4963 79.6143 28.0069 77.9051 28.0359 76.1653C28.0307 74.7075 28.4058 73.2737 29.1239 72.0051C29.8663 70.6131 30.9731 69.449 32.3259 68.6373C33.6787 67.8256 35.2267 67.3969 36.8043 67.3969C37.9558 67.3969 39.096 67.6237 40.1598 68.0643C41.2237 68.505 42.1903 69.1508 43.0045 69.9651C43.8187 70.7793 44.4646 71.7459 44.9053 72.8098C45.3459 73.8736 45.5727 75.0138 45.5727 76.1653V76.1653Z" fill="#003370"/>
</svg>
