<svg width="62" height="69" viewBox="0 0 62 69" fill="none" xmlns="http://www.w3.org/2000/svg">
    <path d="M29.2555 68.5909C30.2655 69.1387 31.5333 69.1352 32.5433 68.5874C60.069 53.5709 62.0238 24.2322 61.9998 15.8901C61.9972 15.2196 61.8021 14.5645 61.4384 14.0049C61.0747 13.4453 60.5582 13.0056 59.9522 12.7395L32.2959 0.297889C31.8558 0.100866 31.38 -0.000598165 30.899 2.65276e-06C30.418 0.00060347 29.9425 0.103255 29.5028 0.301378L2.03898 12.743C1.44187 13.0092 0.932688 13.4441 0.572094 13.9958C0.211501 14.5476 0.0146982 15.193 0.00513324 15.8552C-0.111676 24.1554 1.53396 53.557 29.2555 68.5909ZM19.5878 28.6039L27.4656 36.6041L42.2144 21.6259L47.0723 26.5593L27.4656 46.4709L14.7299 33.5373L19.5878 28.6039V28.6039Z" fill="#00C9FF"/>
</svg>
