<svg width="846" height="563" viewBox="0 0 846 563" fill="none" xmlns="http://www.w3.org/2000/svg">
    <g clip-path="url(#clip0_944_51)">
        <path d="M334.518 137.752C390.409 137.752 455.519 155.236 526.198 206.587C650.497 296.947 692.877 459.902 625.071 585.655C621.937 591.46 617.69 596.592 612.572 600.756C607.455 604.919 601.567 608.034 595.246 609.923C588.925 611.811 582.295 612.437 575.732 611.763C569.17 611.089 562.803 609.128 556.998 605.994C551.193 602.86 546.062 598.612 541.898 593.495C537.735 588.378 534.62 582.491 532.731 576.17C530.843 569.849 530.218 563.218 530.892 556.655C531.566 550.092 533.526 543.727 536.66 537.921C580.777 456.355 550.846 348.724 467.117 287.833C394.63 235.17 326.858 224.424 259.974 255.029C202.098 281.521 162.911 331.241 152.308 345.852C44.5341 494.124 118.758 666.583 247.739 760.348C335.156 823.898 444.03 841.524 539.001 807.585C551.544 803.099 565.354 803.779 577.395 809.476C589.436 815.172 598.721 825.417 603.208 837.96C607.694 850.502 607.013 864.313 601.317 876.354C595.621 888.395 585.376 897.68 572.834 902.166C446.584 947.311 302.991 924.686 188.692 841.631C98.58 776.13 35.491 686.407 11.056 589.025C-15.364 483.734 5.91405 376.243 71.0601 286.804C89.3241 261.661 140.25 199.316 218.199 163.675C254.652 146.754 294.33 137.912 334.518 137.752Z" fill="white" fill-opacity="0.02"/>
        <path d="M405.834 0.755127C496.353 1.32713 584.374 30.5101 657.306 84.1301C747.418 149.631 810.507 239.353 834.941 336.736C861.362 442.027 840.084 549.517 774.938 638.955C756.674 664.099 705.749 726.408 627.801 762.084C558.115 794.001 448.106 812.372 319.835 719.174C195.713 628.813 153.157 465.858 220.963 340.105C224.098 334.302 228.344 329.174 233.46 325.012C238.577 320.85 244.462 317.737 250.782 315.85C257.101 313.963 263.731 313.339 270.292 314.014C276.852 314.689 283.215 316.65 289.017 319.784C294.82 322.918 299.948 327.165 304.11 332.281C308.272 337.397 311.385 343.284 313.272 349.603C315.159 355.923 315.783 362.551 315.108 369.112C314.433 375.672 312.472 382.036 309.338 387.838C265.221 469.404 295.152 577.036 378.881 637.891C451.369 690.59 519.14 701.335 586.024 670.73C643.9 644.239 683.087 594.52 693.69 579.874C801.428 431.636 727.239 259.142 598.223 165.412C510.841 101.861 401.97 84.2011 306.998 118.175C300.788 120.396 294.201 121.373 287.613 121.049C281.025 120.724 274.566 119.105 268.603 116.285C262.641 113.464 257.294 109.497 252.865 104.609C248.436 99.7221 245.012 94.0101 242.79 87.8001C240.569 81.5901 239.593 75.0032 239.918 68.4152C240.242 61.8282 241.861 55.3691 244.681 49.4061C247.502 43.4441 251.468 38.0961 256.356 33.6671C261.243 29.2381 266.956 25.8151 273.166 23.5931C315.75 8.41914 360.628 0.694127 405.834 0.755127Z" fill="white" fill-opacity="0.02"/>
    </g>
    <defs>
        <clipPath id="clip0_944_51">
            <rect width="846" height="563" fill="white" transform="translate(846 563) rotate(-180)"/>
        </clipPath>
    </defs>
</svg>
