<svg width="786" height="858" viewBox="0 0 786 858" fill="none" xmlns="http://www.w3.org/2000/svg">
    <path d="M474.819 730.822C422.935 730.822 362.491 714.592 296.878 666.921C181.488 583.037 142.146 431.762 205.092 315.022C208.001 309.633 211.944 304.87 216.695 301.004C221.445 297.139 226.911 294.247 232.779 292.494C238.647 290.741 244.802 290.16 250.894 290.786C256.987 291.412 262.897 293.232 268.286 296.142C273.675 299.051 278.438 302.994 282.303 307.745C286.169 312.495 289.06 317.96 290.813 323.828C292.567 329.696 293.146 335.852 292.521 341.944C291.895 348.036 290.076 353.946 287.166 359.335C246.212 435.054 273.997 534.972 351.725 591.498C419.017 640.387 481.93 650.362 544.02 621.951C597.748 597.358 634.126 551.202 643.97 537.638C744.019 399.993 675.115 239.895 555.379 152.851C474.227 93.8551 373.157 77.4929 284.993 108.999C273.349 113.164 260.529 112.532 249.351 107.244C238.173 101.956 229.553 92.4449 225.388 80.8017C221.223 69.1584 221.856 56.3374 227.144 45.1594C232.432 33.9814 241.942 25.362 253.585 21.1972C370.786 -20.712 504.087 0.291384 610.193 77.3938C693.847 138.2 752.414 221.492 775.097 311.894C799.624 409.638 779.871 509.425 719.394 592.453C702.439 615.794 655.163 673.67 582.801 706.757C548.961 722.465 512.127 730.674 474.819 730.822Z" fill="white" fill-opacity="0.02"/>
    <path d="M408.617 858C324.586 857.469 242.874 830.378 175.17 780.601C91.5159 719.795 32.9489 636.503 10.2659 546.1C-14.2607 448.356 5.492 348.571 65.969 265.543C82.9236 242.201 130.198 184.358 202.56 151.239C267.251 121.609 369.375 104.556 488.452 191.074C603.678 274.958 643.183 426.233 580.237 542.973C577.328 548.36 573.385 553.121 568.636 556.984C563.886 560.847 558.422 563.738 552.556 565.489C546.69 567.241 540.535 567.82 534.444 567.193C528.354 566.567 522.448 564.747 517.061 561.837C511.674 558.927 506.913 554.985 503.05 550.236C499.186 545.486 496.296 540.022 494.545 534.155C492.793 528.289 492.214 522.135 492.841 516.045C493.467 509.955 495.287 504.048 498.197 498.661C539.151 422.941 511.366 323.024 433.638 266.53C366.346 217.609 303.433 207.634 241.342 236.045C187.614 260.637 151.236 306.793 141.393 320.39C41.3771 458.002 110.249 618.133 230.018 705.145C311.136 764.14 412.204 780.535 500.369 748.996C506.134 746.934 512.249 746.027 518.365 746.328C524.48 746.629 530.477 748.132 536.012 750.75C541.546 753.369 546.511 757.052 550.622 761.589C554.734 766.126 557.912 771.429 559.975 777.194C562.037 782.959 562.942 789.074 562.641 795.189C562.341 801.305 560.838 807.301 558.219 812.835C555.601 818.37 551.919 823.335 547.381 827.447C542.844 831.558 537.541 834.736 531.776 836.798C492.245 850.885 450.583 858.057 408.617 858Z" fill="white" fill-opacity="0.02"/>
</svg>
