<svg width="846" height="563" viewBox="0 0 846 563" fill="none" xmlns="http://www.w3.org/2000/svg">
    <path d="M511.48 425.248C455.589 425.248 390.479 407.764 319.8 356.413C195.501 266.053 153.121 103.098 220.927 -22.655C224.061 -28.4601 228.308 -33.5917 233.426 -37.7555C238.543 -41.9193 244.431 -45.0341 250.752 -46.9227C257.073 -48.8113 263.703 -49.4367 270.266 -48.7625C276.828 -48.0884 283.195 -46.1279 289 -42.9937C294.805 -39.8594 299.936 -35.6121 304.1 -30.4949C308.263 -25.3777 311.378 -19.4911 313.267 -13.1701C315.155 -6.849 315.78 -0.217438 315.106 6.34521C314.432 12.9078 312.472 19.2736 309.338 25.0787C265.221 106.645 295.152 214.276 378.881 275.167C451.368 327.83 519.14 338.576 586.024 307.971C643.9 281.479 683.087 231.759 693.69 217.148C801.464 68.8757 727.24 -103.583 598.259 -197.348C510.842 -260.898 401.968 -278.524 306.997 -244.585C294.454 -240.099 280.644 -240.779 268.603 -246.476C256.562 -252.172 247.277 -262.417 242.79 -274.96C238.304 -287.502 238.985 -301.313 244.681 -313.354C250.377 -325.395 260.622 -334.68 273.164 -339.166C399.414 -384.311 543.007 -361.686 657.306 -278.631C747.418 -213.13 810.507 -123.407 834.942 -26.0247C861.362 79.2663 840.084 186.757 774.938 276.196C756.674 301.339 705.748 363.684 627.799 399.325C591.346 416.246 551.668 425.088 511.48 425.248Z" fill="white" fill-opacity="0.02"/>
    <path d="M440.166 562.245C349.647 561.673 261.626 532.49 188.694 478.87C98.5817 413.369 35.4928 323.647 11.0585 226.264C-15.3618 120.973 5.91603 13.4836 71.0624 -75.9552C89.3261 -101.099 140.251 -163.408 218.199 -199.084C287.885 -231.001 397.894 -249.372 526.165 -156.174C650.287 -65.8131 692.843 97.142 625.037 222.895C621.902 228.698 617.656 233.826 612.54 237.988C607.423 242.15 601.538 245.263 595.218 247.15C588.899 249.037 582.269 249.661 575.708 248.986C569.148 248.311 562.785 246.35 556.983 243.216C551.18 240.082 546.052 235.835 541.89 230.719C537.728 225.603 534.615 219.716 532.728 213.397C530.841 207.077 530.217 200.449 530.892 193.888C531.567 187.328 533.528 180.964 536.662 175.162C580.779 93.5958 550.848 -14.0358 467.119 -74.8911C394.631 -127.59 326.86 -138.335 259.976 -107.73C202.1 -81.2391 162.913 -31.5198 152.31 -16.8734C44.5717 131.364 118.761 303.858 247.777 397.588C335.159 461.139 444.03 478.799 539.002 444.825C545.212 442.604 551.799 441.627 558.387 441.951C564.975 442.276 571.434 443.895 577.397 446.715C583.359 449.536 588.706 453.503 593.135 458.391C597.564 463.278 600.988 468.99 603.21 475.2C605.431 481.41 606.407 487.997 606.082 494.585C605.758 501.172 604.139 507.631 601.319 513.594C598.498 519.556 594.532 524.904 589.644 529.333C584.757 533.762 579.044 537.185 572.834 539.407C530.25 554.581 485.372 562.306 440.166 562.245Z" fill="white" fill-opacity="0.02"/>
</svg>
