<svg width="961" height="402" viewBox="0 0 961 402" fill="none" xmlns="http://www.w3.org/2000/svg">
<mask id="mask0_1967_92" style="mask-type:alpha" maskUnits="userSpaceOnUse" x="-1" y="0" width="962" height="402">
<rect x="961" y="402" width="962" height="402" transform="rotate(-180 961 402)" fill="black"/>
</mask>
<g mask="url(#mask0_1967_92)">
<path d="M727.221 400.822C676.081 400.822 616.505 384.592 551.833 336.921C438.098 253.037 399.32 101.762 461.363 -14.9775C464.231 -20.3666 468.117 -25.1304 472.8 -28.9958C477.482 -32.8611 482.87 -35.7526 488.654 -37.5059C494.437 -39.2591 500.504 -39.8397 506.509 -39.2138C512.514 -38.588 518.339 -36.768 523.651 -33.8584C528.962 -30.9488 533.657 -27.0059 537.467 -22.2555C541.277 -17.5051 544.127 -12.0405 545.855 -6.17245C547.583 -0.304443 548.155 5.85181 547.538 11.9441C546.921 18.0363 545.128 23.9458 542.26 29.3348C501.893 105.054 529.28 204.972 605.893 261.498C672.219 310.387 734.231 320.362 795.43 291.951C848.387 267.358 884.243 221.202 893.946 207.638C992.56 69.9927 924.644 -90.1047 806.626 -177.149C726.638 -236.145 627.017 -252.507 540.118 -221.001C528.642 -216.836 516.005 -217.468 504.988 -222.756C493.97 -228.044 485.473 -237.555 481.368 -249.198C477.263 -260.842 477.886 -273.663 483.099 -284.841C488.311 -296.019 497.685 -304.638 509.161 -308.803C624.681 -350.712 756.069 -329.709 860.654 -252.606C943.107 -191.8 1000.83 -108.508 1023.19 -18.1057C1047.37 79.6385 1027.9 179.425 968.288 262.453C951.576 285.794 904.978 343.67 833.655 376.757C800.3 392.465 763.994 400.674 727.221 400.822Z" fill="white" fill-opacity="0.02"/>
<path d="M661.969 528C579.143 527.469 498.603 500.378 431.87 450.601C349.416 389.795 291.689 306.503 269.332 216.1C245.157 118.356 264.626 18.5708 324.236 -64.4575C340.947 -87.7989 387.544 -145.642 458.867 -178.761C522.63 -208.391 623.289 -225.445 740.659 -138.927C854.232 -55.0423 893.17 96.2329 831.127 212.973C828.259 218.36 824.374 223.121 819.692 226.984C815.011 230.847 809.625 233.738 803.843 235.489C798.061 237.241 791.994 237.82 785.991 237.193C779.988 236.566 774.167 234.747 768.857 231.837C763.548 228.927 758.855 224.985 755.047 220.236C751.239 215.486 748.39 210.021 746.664 204.155C744.937 198.288 744.367 192.135 744.984 186.045C745.602 179.955 747.396 174.047 750.264 168.661C790.631 92.9409 763.244 -6.97621 686.631 -63.4697C620.304 -112.391 558.293 -122.366 497.094 -93.9551C444.136 -69.3627 408.28 -23.207 398.578 -9.61038C299.997 128.002 367.88 288.133 485.931 375.145C565.887 434.14 665.505 450.535 752.404 418.996C758.087 416.934 764.114 416.027 770.142 416.328C776.17 416.629 782.081 418.132 787.536 420.75C792.992 423.369 797.885 427.052 801.937 431.589C805.99 436.126 809.123 441.429 811.155 447.194C813.188 452.959 814.081 459.073 813.784 465.189C813.487 471.304 812.006 477.3 809.425 482.835C806.844 488.37 803.215 493.335 798.743 497.447C794.271 501.558 789.044 504.736 783.361 506.798C744.397 520.885 703.333 528.057 661.969 528Z" fill="white" fill-opacity="0.02"/>
</g>
</svg>
